<?xml version="1.0" encoding="utf-8" standalone="no"?>
<!DOCTYPE svg PUBLIC "-//W3C//DTD SVG 1.1//EN"
  "http://www.w3.org/Graphics/SVG/1.1/DTD/svg11.dtd">
<svg xmlns:xlink="http://www.w3.org/1999/xlink" width="202.903937pt" height="182.613543pt" viewBox="0 0 202.903937 182.613543" xmlns="http://www.w3.org/2000/svg" version="1.1">
 <metadata>
  <rdf:RDF xmlns:dc="http://purl.org/dc/elements/1.1/" xmlns:cc="http://creativecommons.org/ns#" xmlns:rdf="http://www.w3.org/1999/02/22-rdf-syntax-ns#">
   <cc:Work>
    <dc:type rdf:resource="http://purl.org/dc/dcmitype/StillImage"/>
    <dc:date>2024-05-19T14:39:08.862176</dc:date>
    <dc:format>image/svg+xml</dc:format>
    <dc:creator>
     <cc:Agent>
      <dc:title>Matplotlib v3.8.2, https://matplotlib.org/</dc:title>
     </cc:Agent>
    </dc:creator>
   </cc:Work>
  </rdf:RDF>
 </metadata>
 <defs>
  <style type="text/css">*{stroke-linejoin: round; stroke-linecap: butt}</style>
 </defs>
 <g id="figure_1">
  <g id="patch_1">
   <path d="M 0 182.613543 
L 202.903937 182.613543 
L 202.903937 0 
L 0 0 
z
" style="fill: #ffffff"/>
  </g>
  <g id="axes_1">
   <g id="patch_2">
    <path d="M 35.508189 150.656173 
L 200.874897 150.656173 
L 200.874897 5.478406 
L 35.508189 5.478406 
z
" style="fill: #ffffff"/>
   </g>
   <g id="matplotlib.axis_1">
    <g id="xtick_1">
     <g id="line2d_1">
      <path d="M 41.335719 150.656173 
L 41.335719 5.478406 
" clip-path="url(#p292dc3ea4b)" style="fill: none; stroke-dasharray: 3.7,1.6; stroke-dashoffset: 0; stroke: #b0b0b0; stroke-opacity: 0.5"/>
     </g>
     <g id="text_1">
      <!-- $\mathdefault{0}$ -->
      <g transform="translate(39.006919 165.044457) scale(0.088 -0.088)">
       <defs>
        <path id="CMR17-30" d="M 2688 2025 
C 2688 2416 2682 3080 2413 3591 
C 2176 4039 1798 4198 1466 4198 
C 1158 4198 768 4058 525 3597 
C 269 3118 243 2524 243 2025 
C 243 1661 250 1106 448 619 
C 723 -39 1216 -128 1466 -128 
C 1760 -128 2208 -7 2470 600 
C 2662 1042 2688 1559 2688 2025 
z
M 1466 -26 
C 1056 -26 813 325 723 812 
C 653 1188 653 1738 653 2096 
C 653 2588 653 2997 736 3387 
C 858 3929 1216 4096 1466 4096 
C 1728 4096 2067 3923 2189 3400 
C 2272 3036 2278 2607 2278 2096 
C 2278 1680 2278 1169 2202 792 
C 2067 95 1690 -26 1466 -26 
z
" transform="scale(0.015625)"/>
       </defs>
       <use xlink:href="#CMR17-30" transform="scale(0.996264)"/>
      </g>
     </g>
    </g>
    <g id="xtick_2">
     <g id="line2d_2">
      <path d="M 75.118499 150.656173 
L 75.118499 5.478406 
" clip-path="url(#p292dc3ea4b)" style="fill: none; stroke-dasharray: 3.7,1.6; stroke-dashoffset: 0; stroke: #b0b0b0; stroke-opacity: 0.5"/>
     </g>
     <g id="text_2">
      <!-- $\mathdefault{20}$ -->
      <g transform="translate(70.4609 165.044457) scale(0.088 -0.088)">
       <defs>
        <path id="CMR17-32" d="M 2669 989 
L 2554 989 
C 2490 536 2438 459 2413 420 
C 2381 369 1920 369 1830 369 
L 602 369 
C 832 619 1280 1072 1824 1597 
C 2214 1967 2669 2402 2669 3035 
C 2669 3790 2067 4224 1395 4224 
C 691 4224 262 3604 262 3030 
C 262 2780 448 2748 525 2748 
C 589 2748 781 2787 781 3010 
C 781 3207 614 3264 525 3264 
C 486 3264 448 3258 422 3245 
C 544 3790 915 4058 1306 4058 
C 1862 4058 2227 3617 2227 3035 
C 2227 2479 1901 2000 1536 1584 
L 262 146 
L 262 0 
L 2515 0 
L 2669 989 
z
" transform="scale(0.015625)"/>
       </defs>
       <use xlink:href="#CMR17-32" transform="scale(0.996264)"/>
       <use xlink:href="#CMR17-30" transform="translate(45.690477 0) scale(0.996264)"/>
      </g>
     </g>
    </g>
    <g id="xtick_3">
     <g id="line2d_3">
      <path d="M 108.901279 150.656173 
L 108.901279 5.478406 
" clip-path="url(#p292dc3ea4b)" style="fill: none; stroke-dasharray: 3.7,1.6; stroke-dashoffset: 0; stroke: #b0b0b0; stroke-opacity: 0.5"/>
     </g>
     <g id="text_3">
      <!-- $\mathdefault{40}$ -->
      <g transform="translate(104.243681 165.044457) scale(0.088 -0.088)">
       <defs>
        <path id="CMR17-34" d="M 2150 4122 
C 2150 4256 2144 4256 2029 4256 
L 128 1254 
L 128 1088 
L 1779 1088 
L 1779 457 
C 1779 224 1766 160 1318 160 
L 1197 160 
L 1197 0 
C 1402 0 1747 0 1965 0 
C 2182 0 2528 0 2733 0 
L 2733 160 
L 2611 160 
C 2163 160 2150 224 2150 457 
L 2150 1088 
L 2803 1088 
L 2803 1254 
L 2150 1254 
L 2150 4122 
z
M 1798 3703 
L 1798 1254 
L 256 1254 
L 1798 3703 
z
" transform="scale(0.015625)"/>
       </defs>
       <use xlink:href="#CMR17-34" transform="scale(0.996264)"/>
       <use xlink:href="#CMR17-30" transform="translate(45.690477 0) scale(0.996264)"/>
      </g>
     </g>
    </g>
    <g id="xtick_4">
     <g id="line2d_4">
      <path d="M 142.684059 150.656173 
L 142.684059 5.478406 
" clip-path="url(#p292dc3ea4b)" style="fill: none; stroke-dasharray: 3.7,1.6; stroke-dashoffset: 0; stroke: #b0b0b0; stroke-opacity: 0.5"/>
     </g>
     <g id="text_4">
      <!-- $\mathdefault{60}$ -->
      <g transform="translate(138.026461 165.044457) scale(0.088 -0.088)">
       <defs>
        <path id="CMR17-36" d="M 678 2176 
C 678 3690 1395 4032 1811 4032 
C 1946 4032 2272 4009 2400 3776 
C 2298 3776 2106 3776 2106 3553 
C 2106 3381 2246 3323 2336 3323 
C 2394 3323 2566 3348 2566 3560 
C 2566 3954 2246 4179 1805 4179 
C 1043 4179 243 3390 243 1984 
C 243 253 966 -128 1478 -128 
C 2099 -128 2688 427 2688 1283 
C 2688 2081 2170 2662 1517 2662 
C 1126 2662 838 2407 678 1960 
L 678 2176 
z
M 1478 25 
C 691 25 691 1200 691 1436 
C 691 1896 909 2560 1504 2560 
C 1613 2560 1926 2560 2138 2120 
C 2253 1870 2253 1609 2253 1289 
C 2253 944 2253 690 2118 434 
C 1978 171 1773 25 1478 25 
z
" transform="scale(0.015625)"/>
       </defs>
       <use xlink:href="#CMR17-36" transform="scale(0.996264)"/>
       <use xlink:href="#CMR17-30" transform="translate(45.690477 0) scale(0.996264)"/>
      </g>
     </g>
    </g>
    <g id="xtick_5">
     <g id="line2d_5">
      <path d="M 176.466839 150.656173 
L 176.466839 5.478406 
" clip-path="url(#p292dc3ea4b)" style="fill: none; stroke-dasharray: 3.7,1.6; stroke-dashoffset: 0; stroke: #b0b0b0; stroke-opacity: 0.5"/>
     </g>
     <g id="text_5">
      <!-- $\mathdefault{80}$ -->
      <g transform="translate(171.809241 165.044457) scale(0.088 -0.088)">
       <defs>
        <path id="CMR17-38" d="M 1741 2264 
C 2144 2467 2554 2773 2554 3263 
C 2554 3841 1990 4179 1472 4179 
C 890 4179 378 3759 378 3180 
C 378 3021 416 2747 666 2505 
C 730 2442 998 2251 1171 2130 
C 883 1983 211 1634 211 934 
C 211 279 838 -128 1459 -128 
C 2144 -128 2720 362 2720 1010 
C 2720 1590 2330 1857 2074 2029 
L 1741 2264 
z
M 902 2822 
C 851 2854 595 3051 595 3351 
C 595 3739 998 4032 1459 4032 
C 1965 4032 2336 3676 2336 3262 
C 2336 2669 1670 2331 1638 2331 
C 1632 2331 1626 2331 1574 2370 
L 902 2822 
z
M 2080 1519 
C 2176 1449 2483 1240 2483 851 
C 2483 381 2010 25 1472 25 
C 890 25 448 438 448 940 
C 448 1443 838 1862 1280 2060 
L 2080 1519 
z
" transform="scale(0.015625)"/>
       </defs>
       <use xlink:href="#CMR17-38" transform="scale(0.996264)"/>
       <use xlink:href="#CMR17-30" transform="translate(45.690477 0) scale(0.996264)"/>
      </g>
     </g>
    </g>
    <g id="text_6">
     <!-- Epoch -->
     <g transform="translate(104.607778 177.390934) scale(0.096 -0.096)">
      <defs>
       <path id="CMR17-45" d="M 3885 1615 
L 3770 1615 
C 3629 676 3546 166 2419 166 
L 1530 166 
C 1274 166 1261 197 1261 414 
L 1261 2176 
L 1862 2176 
C 2464 2176 2522 1960 2522 1430 
L 2637 1430 
L 2637 3081 
L 2522 3081 
C 2522 2557 2464 2342 1862 2342 
L 1261 2342 
L 1261 3913 
C 1261 4128 1274 4160 1530 4160 
L 2406 4160 
C 3398 4160 3514 3769 3603 2929 
L 3718 2929 
L 3565 4325 
L 326 4325 
L 326 4160 
C 768 4160 838 4160 838 3874 
L 838 451 
C 838 166 768 166 326 166 
L 326 0 
L 3654 0 
L 3885 1615 
z
" transform="scale(0.015625)"/>
       <path id="CMR17-70" d="M 1408 -1063 
C 998 -1063 973 -1037 973 -789 
L 973 402 
C 1158 134 1427 -38 1766 -38 
C 2406 -38 3053 523 3053 1388 
C 3053 2191 2496 2802 1837 2802 
C 1453 2802 1139 2592 960 2338 
L 960 2802 
L 198 2732 
L 198 2567 
C 576 2567 634 2528 634 2223 
L 634 -789 
C 634 -1031 608 -1063 198 -1063 
L 198 -1228 
C 352 -1216 634 -1216 800 -1216 
C 966 -1216 1254 -1216 1408 -1228 
L 1408 -1063 
z
M 973 2012 
C 973 2102 973 2235 1222 2471 
C 1254 2497 1472 2688 1792 2688 
C 2259 2688 2643 2108 2643 1382 
C 2643 656 2234 64 1728 64 
C 1498 64 1248 172 1056 472 
C 973 612 973 650 973 752 
L 973 2012 
z
" transform="scale(0.015625)"/>
       <path id="CMR17-6f" d="M 2758 1356 
C 2758 2176 2163 2816 1466 2816 
C 768 2816 173 2176 173 1356 
C 173 551 768 -64 1466 -64 
C 2163 -64 2758 551 2758 1356 
z
M 1466 51 
C 1165 51 909 230 762 480 
C 602 767 582 1126 582 1408 
C 582 1677 595 2010 762 2298 
C 890 2509 1139 2714 1466 2714 
C 1754 2714 1997 2554 2150 2330 
C 2349 2029 2349 1607 2349 1408 
C 2349 1158 2336 775 2163 467 
C 1984 173 1709 51 1466 51 
z
" transform="scale(0.015625)"/>
       <path id="CMR17-63" d="M 2234 2240 
C 2112 2240 1933 2240 1933 2017 
C 1933 1838 2080 1787 2163 1787 
C 2208 1787 2394 1807 2394 2024 
C 2394 2467 1958 2803 1466 2803 
C 787 2803 211 2178 211 1363 
C 211 516 813 -64 1466 -64 
C 2259 -64 2458 677 2458 748 
C 2458 774 2451 793 2406 793 
C 2362 793 2355 787 2330 703 
C 2163 180 1798 51 1523 51 
C 1114 51 621 427 621 1369 
C 621 2338 1094 2688 1472 2688 
C 1722 2688 2093 2573 2234 2240 
z
" transform="scale(0.015625)"/>
       <path id="CMR17-68" d="M 2656 1933 
C 2656 2259 2592 2790 1837 2790 
C 1312 2790 1056 2368 979 2157 
L 973 2157 
L 973 4396 
L 211 4326 
L 211 4160 
C 589 4160 646 4122 646 3817 
L 646 426 
C 646 184 621 153 211 153 
L 211 -13 
C 365 0 646 0 813 0 
C 979 0 1267 0 1421 -13 
L 1421 153 
C 1011 153 986 178 986 428 
L 986 1658 
C 986 2247 1344 2688 1792 2688 
C 2266 2688 2317 2266 2317 1958 
L 2317 428 
C 2317 184 2291 153 1882 153 
L 1882 -13 
C 2035 0 2317 0 2483 0 
C 2650 0 2938 0 3091 -13 
L 3091 153 
C 2682 153 2656 178 2656 428 
L 2656 1933 
z
" transform="scale(0.015625)"/>
      </defs>
      <use xlink:href="#CMR17-45" transform="scale(0.996264)"/>
      <use xlink:href="#CMR17-70" transform="translate(62.586301 0) scale(0.996264)"/>
      <use xlink:href="#CMR17-6f" transform="translate(116.084109 0) scale(0.996264)"/>
      <use xlink:href="#CMR17-63" transform="translate(164.377025 0) scale(0.996264)"/>
      <use xlink:href="#CMR17-68" transform="translate(202.260231 0) scale(0.996264)"/>
     </g>
    </g>
   </g>
   <g id="matplotlib.axis_2">
    <g id="ytick_1">
     <g id="line2d_6">
      <path d="M 35.508189 150.656173 
L 200.874897 150.656173 
" clip-path="url(#p292dc3ea4b)" style="fill: none; stroke-dasharray: 3.7,1.6; stroke-dashoffset: 0; stroke: #b0b0b0; stroke-opacity: 0.5"/>
     </g>
     <g id="text_7">
      <!-- 0 -->
      <g transform="translate(22.550591 153.700315) scale(0.088 -0.088)">
       <use xlink:href="#CMR17-30" transform="scale(0.996264)"/>
      </g>
     </g>
    </g>
    <g id="ytick_2">
     <g id="line2d_7">
      <path d="M 35.508189 132.508952 
L 200.874897 132.508952 
" clip-path="url(#p292dc3ea4b)" style="fill: none; stroke-dasharray: 3.7,1.6; stroke-dashoffset: 0; stroke: #b0b0b0; stroke-opacity: 0.5"/>
     </g>
     <g id="text_8">
      <!-- 10 -->
      <g transform="translate(17.892993 135.553094) scale(0.088 -0.088)">
       <defs>
        <path id="CMR17-31" d="M 1702 4058 
C 1702 4192 1696 4192 1606 4192 
C 1357 3916 979 3827 621 3827 
C 602 3827 570 3827 563 3808 
C 557 3795 557 3782 557 3648 
C 755 3648 1088 3686 1344 3839 
L 1344 461 
C 1344 236 1331 160 781 160 
L 589 160 
L 589 0 
C 896 0 1216 0 1523 0 
C 1830 0 2150 0 2458 0 
L 2458 160 
L 2266 160 
C 1715 160 1702 230 1702 458 
L 1702 4058 
z
" transform="scale(0.015625)"/>
       </defs>
       <use xlink:href="#CMR17-31" transform="scale(0.996264)"/>
       <use xlink:href="#CMR17-30" transform="translate(45.690477 0) scale(0.996264)"/>
      </g>
     </g>
    </g>
    <g id="ytick_3">
     <g id="line2d_8">
      <path d="M 35.508189 114.361731 
L 200.874897 114.361731 
" clip-path="url(#p292dc3ea4b)" style="fill: none; stroke-dasharray: 3.7,1.6; stroke-dashoffset: 0; stroke: #b0b0b0; stroke-opacity: 0.5"/>
     </g>
     <g id="text_9">
      <!-- 20 -->
      <g transform="translate(17.892993 117.405873) scale(0.088 -0.088)">
       <use xlink:href="#CMR17-32" transform="scale(0.996264)"/>
       <use xlink:href="#CMR17-30" transform="translate(45.690477 0) scale(0.996264)"/>
      </g>
     </g>
    </g>
    <g id="ytick_4">
     <g id="line2d_9">
      <path d="M 35.508189 96.214511 
L 200.874897 96.214511 
" clip-path="url(#p292dc3ea4b)" style="fill: none; stroke-dasharray: 3.7,1.6; stroke-dashoffset: 0; stroke: #b0b0b0; stroke-opacity: 0.5"/>
     </g>
     <g id="text_10">
      <!-- 30 -->
      <g transform="translate(17.892993 99.258652) scale(0.088 -0.088)">
       <defs>
        <path id="CMR17-33" d="M 1414 2157 
C 1984 2157 2234 1662 2234 1090 
C 2234 320 1824 25 1453 25 
C 1114 25 563 194 390 693 
C 422 680 454 680 486 680 
C 640 680 755 782 755 948 
C 755 1133 614 1216 486 1216 
C 378 1216 211 1165 211 926 
C 211 335 787 -128 1466 -128 
C 2176 -128 2720 430 2720 1085 
C 2720 1707 2208 2157 1600 2227 
C 2086 2328 2554 2756 2554 3329 
C 2554 3820 2048 4179 1472 4179 
C 890 4179 378 3829 378 3329 
C 378 3110 544 3072 627 3072 
C 762 3072 877 3155 877 3321 
C 877 3486 762 3569 627 3569 
C 602 3569 570 3569 544 3557 
C 730 3959 1235 4032 1459 4032 
C 1683 4032 2106 3925 2106 3320 
C 2106 3143 2080 2828 1862 2550 
C 1670 2304 1453 2304 1242 2284 
C 1210 2284 1062 2269 1037 2269 
C 992 2263 966 2257 966 2208 
C 966 2163 973 2157 1101 2157 
L 1414 2157 
z
" transform="scale(0.015625)"/>
       </defs>
       <use xlink:href="#CMR17-33" transform="scale(0.996264)"/>
       <use xlink:href="#CMR17-30" transform="translate(45.690477 0) scale(0.996264)"/>
      </g>
     </g>
    </g>
    <g id="ytick_5">
     <g id="line2d_10">
      <path d="M 35.508189 78.06729 
L 200.874897 78.06729 
" clip-path="url(#p292dc3ea4b)" style="fill: none; stroke-dasharray: 3.7,1.6; stroke-dashoffset: 0; stroke: #b0b0b0; stroke-opacity: 0.5"/>
     </g>
     <g id="text_11">
      <!-- 40 -->
      <g transform="translate(17.892993 81.111431) scale(0.088 -0.088)">
       <use xlink:href="#CMR17-34" transform="scale(0.996264)"/>
       <use xlink:href="#CMR17-30" transform="translate(45.690477 0) scale(0.996264)"/>
      </g>
     </g>
    </g>
    <g id="ytick_6">
     <g id="line2d_11">
      <path d="M 35.508189 59.920069 
L 200.874897 59.920069 
" clip-path="url(#p292dc3ea4b)" style="fill: none; stroke-dasharray: 3.7,1.6; stroke-dashoffset: 0; stroke: #b0b0b0; stroke-opacity: 0.5"/>
     </g>
     <g id="text_12">
      <!-- 50 -->
      <g transform="translate(17.892993 62.964211) scale(0.088 -0.088)">
       <defs>
        <path id="CMR17-35" d="M 730 3692 
C 794 3666 1056 3584 1325 3584 
C 1920 3584 2246 3911 2432 4100 
C 2432 4157 2432 4192 2394 4192 
C 2387 4192 2374 4192 2323 4163 
C 2099 4058 1837 3973 1517 3973 
C 1325 3973 1037 3999 723 4139 
C 653 4171 640 4171 634 4171 
C 602 4171 595 4164 595 4037 
L 595 2203 
C 595 2089 595 2057 659 2057 
C 691 2057 704 2070 736 2114 
C 941 2401 1222 2522 1542 2522 
C 1766 2522 2246 2382 2246 1289 
C 2246 1085 2246 715 2054 421 
C 1894 159 1645 25 1370 25 
C 947 25 518 320 403 814 
C 429 807 480 795 506 795 
C 589 795 749 840 749 1038 
C 749 1210 627 1280 506 1280 
C 358 1280 262 1190 262 1011 
C 262 454 704 -128 1382 -128 
C 2042 -128 2669 440 2669 1264 
C 2669 2030 2170 2624 1549 2624 
C 1222 2624 947 2503 730 2274 
L 730 3692 
z
" transform="scale(0.015625)"/>
       </defs>
       <use xlink:href="#CMR17-35" transform="scale(0.996264)"/>
       <use xlink:href="#CMR17-30" transform="translate(45.690477 0) scale(0.996264)"/>
      </g>
     </g>
    </g>
    <g id="ytick_7">
     <g id="line2d_12">
      <path d="M 35.508189 41.772848 
L 200.874897 41.772848 
" clip-path="url(#p292dc3ea4b)" style="fill: none; stroke-dasharray: 3.7,1.6; stroke-dashoffset: 0; stroke: #b0b0b0; stroke-opacity: 0.5"/>
     </g>
     <g id="text_13">
      <!-- 60 -->
      <g transform="translate(17.892993 44.81699) scale(0.088 -0.088)">
       <use xlink:href="#CMR17-36" transform="scale(0.996264)"/>
       <use xlink:href="#CMR17-30" transform="translate(45.690477 0) scale(0.996264)"/>
      </g>
     </g>
    </g>
    <g id="ytick_8">
     <g id="line2d_13">
      <path d="M 35.508189 23.625627 
L 200.874897 23.625627 
" clip-path="url(#p292dc3ea4b)" style="fill: none; stroke-dasharray: 3.7,1.6; stroke-dashoffset: 0; stroke: #b0b0b0; stroke-opacity: 0.5"/>
     </g>
     <g id="text_14">
      <!-- 70 -->
      <g transform="translate(17.892993 26.669769) scale(0.088 -0.088)">
       <defs>
        <path id="CMR17-37" d="M 2886 3941 
L 2886 4081 
L 1382 4081 
C 634 4081 621 4165 595 4288 
L 480 4288 
L 294 3094 
L 410 3094 
C 429 3215 474 3540 550 3661 
C 589 3712 1062 3712 1171 3712 
L 2579 3712 
L 1869 2661 
C 1395 1954 1069 999 1069 165 
C 1069 89 1069 -128 1299 -128 
C 1530 -128 1530 89 1530 171 
L 1530 465 
C 1530 1508 1709 2196 2003 2636 
L 2886 3941 
z
" transform="scale(0.015625)"/>
       </defs>
       <use xlink:href="#CMR17-37" transform="scale(0.996264)"/>
       <use xlink:href="#CMR17-30" transform="translate(45.690477 0) scale(0.996264)"/>
      </g>
     </g>
    </g>
    <g id="ytick_9">
     <g id="line2d_14">
      <path d="M 35.508189 5.478406 
L 200.874897 5.478406 
" clip-path="url(#p292dc3ea4b)" style="fill: none; stroke-dasharray: 3.7,1.6; stroke-dashoffset: 0; stroke: #b0b0b0; stroke-opacity: 0.5"/>
     </g>
     <g id="text_15">
      <!-- 80 -->
      <g transform="translate(17.892993 8.522548) scale(0.088 -0.088)">
       <use xlink:href="#CMR17-38" transform="scale(0.996264)"/>
       <use xlink:href="#CMR17-30" transform="translate(45.690477 0) scale(0.996264)"/>
      </g>
     </g>
    </g>
    <g id="text_16">
     <!-- Test Top-5 Accuracy (\%) -->
     <g transform="translate(11.501965 132.443351) rotate(-90) scale(0.096 -0.096)">
      <defs>
       <path id="CMR17-54" d="M 3981 4326 
L 288 4326 
L 179 2918 
L 294 2918 
C 378 3976 467 4160 1453 4160 
C 1568 4160 1754 4160 1805 4154 
C 1926 4135 1926 4058 1926 3912 
L 1926 459 
C 1926 230 1907 160 1376 160 
L 1197 160 
L 1197 0 
C 1504 0 1824 0 2138 0 
C 2451 0 2771 0 3078 0 
L 3078 160 
L 2899 160 
C 2368 160 2349 230 2349 459 
L 2349 3912 
C 2349 4052 2349 4129 2464 4154 
C 2515 4160 2701 4160 2816 4160 
C 3795 4160 3891 3976 3974 2918 
L 4090 2918 
L 3981 4326 
z
" transform="scale(0.015625)"/>
       <path id="CMR17-65" d="M 2438 1472 
C 2464 1498 2464 1511 2464 1576 
C 2464 2238 2118 2816 1389 2816 
C 710 2816 173 2169 173 1383 
C 173 551 781 -64 1459 -64 
C 2176 -64 2458 607 2458 740 
C 2458 784 2419 784 2406 784 
C 2362 784 2355 771 2330 696 
C 2189 265 1837 51 1504 51 
C 1229 51 954 203 781 480 
C 582 803 582 1176 582 1472 
L 2438 1472 
z
M 589 1568 
C 634 2505 1126 2714 1382 2714 
C 1818 2714 2112 2297 2118 1568 
L 589 1568 
z
" transform="scale(0.015625)"/>
       <path id="CMR17-73" d="M 1978 2697 
C 1978 2813 1971 2819 1933 2819 
C 1907 2819 1901 2813 1824 2717 
C 1805 2691 1747 2626 1728 2601 
C 1523 2819 1235 2819 1126 2819 
C 416 2819 160 2447 160 2076 
C 160 1498 813 1365 998 1325 
C 1402 1243 1542 1217 1677 1101 
C 1760 1025 1901 884 1901 654 
C 1901 384 1747 38 1158 38 
C 602 38 403 460 288 1021 
C 269 1110 269 1117 218 1117 
C 166 1117 160 1110 160 983 
L 160 63 
C 160 -51 166 -58 205 -58 
C 237 -58 243 -51 275 0 
C 314 57 410 211 448 276 
C 576 103 800 -64 1158 -64 
C 1792 -64 2131 283 2131 784 
C 2131 1112 1958 1285 1875 1362 
C 1683 1561 1459 1606 1190 1657 
C 838 1735 390 1825 390 2217 
C 390 2383 480 2737 1126 2737 
C 1811 2737 1850 2094 1862 1888 
C 1869 1856 1901 1849 1920 1849 
C 1978 1849 1978 1869 1978 1978 
L 1978 2697 
z
" transform="scale(0.015625)"/>
       <path id="CMR17-74" d="M 966 2560 
L 1862 2560 
L 1862 2725 
L 966 2725 
L 966 3904 
L 851 3904 
C 838 3245 614 2668 70 2668 
L 70 2560 
L 627 2560 
L 627 771 
C 627 650 627 -64 1370 -64 
C 1747 -64 1965 306 1965 777 
L 1965 1140 
L 1850 1140 
L 1850 783 
C 1850 344 1677 51 1408 51 
C 1222 51 966 178 966 758 
L 966 2560 
z
" transform="scale(0.015625)"/>
       <path id="CMR17-2d" d="M 1632 1216 
L 1632 1496 
L 26 1496 
L 26 1216 
L 1632 1216 
z
" transform="scale(0.015625)"/>
       <path id="CMR17-41" d="M 2323 4378 
C 2291 4461 2278 4480 2214 4480 
C 2150 4480 2138 4461 2106 4378 
L 749 566 
C 627 223 371 153 147 153 
L 147 -13 
C 262 0 518 0 640 0 
C 800 0 1056 0 1210 -13 
L 1210 153 
C 909 153 864 361 864 439 
C 864 497 877 530 890 569 
L 1229 1536 
L 2906 1536 
L 3290 442 
C 3322 365 3322 352 3322 327 
C 3322 153 3046 153 2925 153 
L 2925 0 
C 3110 0 3443 0 3642 0 
C 3808 0 4128 0 4282 -13 
L 4282 153 
C 3942 153 3827 153 3744 387 
L 2323 4378 
z
M 2067 3893 
L 2848 1702 
L 1286 1702 
L 2067 3893 
z
" transform="scale(0.015625)"/>
       <path id="CMR17-75" d="M 1882 2693 
L 1882 2528 
C 2259 2528 2317 2489 2317 2186 
L 2317 1032 
C 2317 500 2029 38 1555 38 
C 1030 38 986 348 986 678 
L 986 2763 
L 211 2693 
L 211 2528 
C 467 2528 640 2528 646 2274 
L 646 1058 
C 646 633 646 361 813 183 
C 896 101 1056 -64 1517 -64 
C 2061 -64 2272 377 2323 506 
L 2330 506 
L 2330 -63 
L 3091 -63 
L 3091 128 
C 2714 128 2656 166 2656 473 
L 2656 2763 
L 1882 2693 
z
" transform="scale(0.015625)"/>
       <path id="CMR17-72" d="M 960 1497 
C 960 2112 1222 2688 1702 2688 
C 1747 2688 1792 2682 1837 2662 
C 1837 2662 1696 2617 1696 2452 
C 1696 2298 1818 2234 1914 2234 
C 1990 2234 2131 2279 2131 2458 
C 2131 2663 1926 2790 1709 2790 
C 1222 2790 1011 2317 947 2093 
L 941 2093 
L 941 2790 
L 198 2720 
L 198 2554 
C 576 2554 634 2515 634 2208 
L 634 428 
C 634 184 608 153 198 153 
L 198 -13 
C 352 0 646 0 813 0 
C 998 0 1325 0 1498 -13 
L 1498 153 
C 1037 153 960 153 960 440 
L 960 1497 
z
" transform="scale(0.015625)"/>
       <path id="CMR17-61" d="M 2304 1653 
C 2304 2072 2304 2294 2035 2543 
C 1798 2752 1523 2816 1306 2816 
C 800 2816 435 2407 435 1971 
C 435 1728 627 1728 666 1728 
C 749 1728 896 1778 896 1954 
C 896 2112 774 2181 666 2181 
C 640 2181 608 2174 589 2168 
C 723 2592 1069 2714 1293 2714 
C 1613 2714 1965 2429 1965 1885 
L 1965 1600 
C 1587 1600 1133 1549 774 1357 
C 371 1133 256 813 256 570 
C 256 77 832 -64 1171 -64 
C 1523 -64 1850 139 1990 511 
C 2003 233 2182 -18 2464 -18 
C 2598 -18 2938 70 2938 567 
L 2938 920 
L 2822 920 
L 2822 562 
C 2822 178 2650 128 2566 128 
C 2304 128 2304 458 2304 738 
L 2304 1653 
z
M 1965 870 
C 1965 317 1568 38 1216 38 
C 896 38 646 275 646 570 
C 646 761 730 1100 1101 1305 
C 1408 1478 1760 1504 1965 1504 
L 1965 870 
z
" transform="scale(0.015625)"/>
       <path id="CMR17-79" d="M 2496 2197 
C 2656 2586 2944 2586 3034 2586 
L 3034 2752 
C 2912 2752 2752 2752 2630 2752 
C 2496 2752 2285 2752 2157 2758 
L 2157 2592 
C 2400 2573 2406 2394 2406 2343 
C 2406 2280 2394 2248 2362 2171 
L 1664 449 
L 902 2306 
C 870 2382 870 2426 870 2433 
C 870 2573 1018 2586 1171 2586 
L 1171 2758 
C 1018 2752 742 2752 582 2752 
C 410 2752 205 2752 64 2758 
L 64 2586 
C 410 2586 448 2554 531 2350 
L 1485 15 
C 1197 -738 1030 -1178 627 -1178 
C 557 -1178 397 -1159 282 -1044 
C 429 -1031 493 -942 493 -833 
C 493 -725 416 -629 288 -629 
C 147 -629 77 -725 77 -840 
C 77 -1095 339 -1280 627 -1280 
C 998 -1280 1229 -922 1357 -604 
L 2496 2197 
z
" transform="scale(0.015625)"/>
       <path id="CMR17-28" d="M 1958 -1561 
C 1958 -1555 1958 -1542 1939 -1523 
C 1645 -1224 858 -407 858 1581 
C 858 3569 1632 4379 1946 4697 
C 1946 4704 1958 4717 1958 4736 
C 1958 4755 1939 4768 1914 4768 
C 1843 4768 1299 4296 986 3594 
C 666 2887 576 2199 576 1588 
C 576 1128 621 351 1005 -471 
C 1312 -1135 1837 -1600 1914 -1600 
C 1946 -1600 1958 -1587 1958 -1561 
z
" transform="scale(0.015625)"/>
       <path id="CMR17-25" d="M 4640 959 
C 4640 1698 4275 2240 3846 2240 
C 3411 2240 2970 1736 2970 959 
C 2970 183 3405 -320 3846 -320 
C 4275 -320 4640 215 4640 959 
z
M 3853 -218 
C 3686 -218 3270 -66 3270 959 
C 3270 1991 3686 2138 3853 2138 
C 4205 2138 4525 1634 4525 959 
C 4525 285 4205 -218 3853 -218 
z
M 4083 4577 
C 4128 4647 4134 4653 4134 4685 
C 4134 4761 4077 4800 4026 4800 
C 3962 4800 3936 4756 3891 4706 
C 3520 4190 3008 4134 2746 4134 
C 2106 4134 1715 4494 1594 4607 
C 1510 4682 1389 4800 1171 4800 
C 736 4800 294 4296 294 3519 
C 294 2743 730 2240 1171 2240 
C 1600 2240 1965 2778 1965 3527 
C 1965 3969 1830 4270 1811 4308 
C 2202 4064 2586 4032 2752 4032 
C 3162 4032 3456 4183 3616 4289 
L 3622 4283 
L 858 -84 
C 800 -174 800 -187 800 -206 
C 800 -276 858 -320 915 -320 
C 973 -320 992 -289 1037 -218 
L 4083 4577 
z
M 1178 2342 
C 1011 2342 595 2494 595 3519 
C 595 4551 1011 4698 1178 4698 
C 1530 4698 1850 4194 1850 3519 
C 1850 2845 1530 2342 1178 2342 
z
" transform="scale(0.015625)"/>
       <path id="CMR17-29" d="M 1683 1581 
C 1683 2040 1638 2817 1254 3639 
C 947 4303 422 4768 346 4768 
C 326 4768 301 4761 301 4729 
C 301 4717 307 4710 314 4697 
C 621 4378 1402 3568 1402 1584 
C 1402 -407 627 -1217 314 -1537 
C 307 -1549 301 -1556 301 -1568 
C 301 -1600 326 -1600 346 -1600 
C 416 -1600 960 -1128 1274 -426 
C 1594 281 1683 969 1683 1581 
z
" transform="scale(0.015625)"/>
      </defs>
      <use xlink:href="#CMR17-54" transform="scale(0.996264)"/>
      <use xlink:href="#CMR17-65" transform="translate(58.702625 0) scale(0.996264)"/>
      <use xlink:href="#CMR17-73" transform="translate(99.188286 0) scale(0.996264)"/>
      <use xlink:href="#CMR17-74" transform="translate(134.989623 0) scale(0.996264)"/>
      <use xlink:href="#CMR17-54" transform="translate(200.346357 0) scale(0.996264)"/>
      <use xlink:href="#CMR17-6f" transform="translate(259.048983 0) scale(0.996264)"/>
      <use xlink:href="#CMR17-70" transform="translate(304.73946 0) scale(0.996264)"/>
      <use xlink:href="#CMR17-2d" transform="translate(355.634829 0) scale(0.996264)"/>
      <use xlink:href="#CMR17-35" transform="translate(385.710796 0) scale(0.996264)"/>
      <use xlink:href="#CMR17-41" transform="translate(461.477239 0) scale(0.996264)"/>
      <use xlink:href="#CMR17-63" transform="translate(530.549669 0) scale(0.996264)"/>
      <use xlink:href="#CMR17-63" transform="translate(571.03533 0) scale(0.996264)"/>
      <use xlink:href="#CMR17-75" transform="translate(611.52099 0) scale(0.996264)"/>
      <use xlink:href="#CMR17-72" transform="translate(662.41636 0) scale(0.996264)"/>
      <use xlink:href="#CMR17-61" transform="translate(697.697128 0) scale(0.996264)"/>
      <use xlink:href="#CMR17-63" transform="translate(743.387605 0) scale(0.996264)"/>
      <use xlink:href="#CMR17-79" transform="translate(783.873265 0) scale(0.996264)"/>
      <use xlink:href="#CMR17-28" transform="translate(862.242147 0) scale(0.996264)"/>
      <use xlink:href="#CMR17-25" transform="translate(897.522915 0) scale(0.996264)"/>
      <use xlink:href="#CMR17-29" transform="translate(974.442505 0) scale(0.996264)"/>
     </g>
    </g>
   </g>
   <g id="PolyCollection_1">
    <defs>
     <path id="m3e8be733ce" d="M 43.024858 -64.858824 
L 43.024858 -60.07268 
L 44.713997 -80.472011 
L 46.403136 -91.686307 
L 48.092275 -104.441533 
L 49.781414 -108.311916 
L 51.470553 -113.98668 
L 53.159692 -115.943305 
L 54.848831 -121.308478 
L 56.53797 -117.146806 
L 58.227109 -121.770745 
L 59.916248 -122.559019 
L 61.605387 -119.383495 
L 63.294526 -127.564062 
L 64.983665 -127.070385 
L 66.672804 -126.265361 
L 68.361943 -128.946169 
L 70.051082 -127.476098 
L 71.740221 -124.193816 
L 73.42936 -126.739008 
L 75.118499 -126.603501 
L 76.807638 -124.158502 
L 78.496777 -125.692664 
L 80.185916 -128.351466 
L 81.875055 -129.76655 
L 83.564194 -131.326294 
L 85.253333 -125.826283 
L 86.942472 -129.121624 
L 88.631611 -130.557674 
L 90.32075 -127.163597 
L 92.009889 -131.572081 
L 93.699028 -159.389488 
L 95.388167 -159.627087 
L 97.077306 -159.211798 
L 98.766445 -158.218928 
L 100.455584 -156.591588 
L 102.144723 -155.059454 
L 103.833862 -153.802229 
L 105.523001 -152.220112 
L 107.21214 -151.391642 
L 108.901279 -150.497872 
L 110.590418 -149.569271 
L 112.279557 -149.154683 
L 113.968696 -148.518231 
L 115.657835 -148.915909 
L 117.346974 -148.079087 
L 119.036113 -145.936212 
L 120.725252 -146.916823 
L 122.414391 -146.379983 
L 124.10353 -146.03516 
L 125.792669 -145.668654 
L 127.481808 -145.301828 
L 129.170947 -145.604818 
L 130.860086 -145.413891 
L 132.549225 -145.41845 
L 134.238364 -144.414658 
L 135.927503 -142.932995 
L 137.616642 -144.368879 
L 139.305781 -144.393146 
L 140.99492 -144.152168 
L 142.684059 -143.560665 
L 144.373198 -151.429056 
L 146.062337 -151.704135 
L 147.751476 -151.879087 
L 149.440615 -151.832966 
L 151.129754 -151.762974 
L 152.818893 -151.834226 
L 154.508032 -151.901574 
L 156.197171 -151.843212 
L 157.88631 -151.906516 
L 159.575449 -151.869951 
L 161.264588 -151.804151 
L 162.953727 -151.844519 
L 164.642866 -151.976704 
L 166.332005 -151.891606 
L 168.021144 -151.915409 
L 169.710283 -151.817944 
L 171.399422 -151.736317 
L 173.088561 -151.722981 
L 174.7777 -151.836137 
L 176.466839 -151.823366 
L 178.155978 -152.013784 
L 179.845117 -151.853176 
L 181.534256 -151.819034 
L 183.223395 -151.768272 
L 184.912534 -151.784785 
L 186.601673 -151.756939 
L 188.290812 -151.765799 
L 189.979951 -151.682331 
L 191.66909 -151.659013 
L 193.358229 -151.735388 
L 193.358229 -152.608252 
L 193.358229 -152.608252 
L 191.66909 -152.546707 
L 189.979951 -152.636628 
L 188.290812 -152.689628 
L 186.601673 -152.541695 
L 184.912534 -152.685159 
L 183.223395 -152.643602 
L 181.534256 -152.556545 
L 179.845117 -152.504982 
L 178.155978 -152.686993 
L 176.466839 -152.579797 
L 174.7777 -152.461046 
L 173.088561 -152.791969 
L 171.399422 -152.659587 
L 169.710283 -152.604092 
L 168.021144 -152.783916 
L 166.332005 -152.756907 
L 164.642866 -152.578895 
L 162.953727 -152.747374 
L 161.264588 -152.828393 
L 159.575449 -152.690003 
L 157.88631 -152.8262 
L 156.197171 -152.737067 
L 154.508032 -152.835497 
L 152.818893 -152.669109 
L 151.129754 -152.634382 
L 149.440615 -152.700857 
L 147.751476 -152.646025 
L 146.062337 -152.588692 
L 144.373198 -152.116106 
L 142.684059 -145.289603 
L 140.99492 -145.528517 
L 139.305781 -146.138281 
L 137.616642 -145.586192 
L 135.927503 -146.056644 
L 134.238364 -145.711722 
L 132.549225 -146.759293 
L 130.860086 -146.213628 
L 129.170947 -146.507595 
L 127.481808 -146.521682 
L 125.792669 -146.690561 
L 124.10353 -146.810401 
L 122.414391 -148.001558 
L 120.725252 -148.141247 
L 119.036113 -148.533887 
L 117.346974 -149.166812 
L 115.657835 -149.248965 
L 113.968696 -150.478511 
L 112.279557 -151.122527 
L 110.590418 -150.660031 
L 108.901279 -151.380649 
L 107.21214 -152.152068 
L 105.523001 -153.210909 
L 103.833862 -154.742856 
L 102.144723 -156.023338 
L 100.455584 -157.188607 
L 98.766445 -158.98601 
L 97.077306 -160.015466 
L 95.388167 -160.580127 
L 93.699028 -159.998924 
L 92.009889 -136.241929 
L 90.32075 -135.394978 
L 88.631611 -135.58534 
L 86.942472 -137.654365 
L 85.253333 -137.838546 
L 83.564194 -134.699126 
L 81.875055 -135.824788 
L 80.185916 -133.556712 
L 78.496777 -137.019799 
L 76.807638 -133.02414 
L 75.118499 -134.021306 
L 73.42936 -133.496722 
L 71.740221 -134.082015 
L 70.051082 -131.847916 
L 68.361943 -133.696609 
L 66.672804 -131.108916 
L 64.983665 -131.256258 
L 63.294526 -130.061373 
L 61.605387 -129.007182 
L 59.916248 -128.449213 
L 58.227109 -125.462864 
L 56.53797 -126.262821 
L 54.848831 -123.581963 
L 53.159692 -121.564846 
L 51.470553 -116.949273 
L 49.781414 -114.004834 
L 48.092275 -108.302194 
L 46.403136 -98.800217 
L 44.713997 -87.819737 
L 43.024858 -64.858824 
z
" style="stroke: #35b779; stroke-opacity: 0.2; stroke-width: 0.8"/>
    </defs>
    <g clip-path="url(#p292dc3ea4b)">
     <use xlink:href="#m3e8be733ce" x="0" y="182.613543" style="fill: #35b779; fill-opacity: 0.2; stroke: #35b779; stroke-opacity: 0.2; stroke-width: 0.8"/>
    </g>
   </g>
   <g id="PolyCollection_2">
    <defs>
     <path id="m1ce19bb562" d="M 43.024858 -57.751338 
L 43.024858 -53.778807 
L 44.713997 -77.410678 
L 46.403136 -83.508686 
L 48.092275 -97.657335 
L 49.781414 -104.373767 
L 51.470553 -110.539377 
L 53.159692 -116.323743 
L 54.848831 -116.840316 
L 56.53797 -120.536269 
L 58.227109 -119.62662 
L 59.916248 -124.38126 
L 61.605387 -124.307994 
L 63.294526 -125.98831 
L 64.983665 -124.27864 
L 66.672804 -120.395481 
L 68.361943 -125.615801 
L 70.051082 -128.366563 
L 71.740221 -126.871882 
L 73.42936 -128.799097 
L 75.118499 -128.701929 
L 76.807638 -130.216875 
L 78.496777 -127.256916 
L 80.185916 -128.116668 
L 81.875055 -128.830954 
L 83.564194 -128.783412 
L 85.253333 -129.486071 
L 86.942472 -131.073364 
L 88.631611 -127.772096 
L 90.32075 -132.602628 
L 92.009889 -129.096628 
L 93.699028 -154.235603 
L 95.388167 -154.859115 
L 97.077306 -153.875086 
L 98.766445 -152.762545 
L 100.455584 -151.028816 
L 102.144723 -149.237501 
L 103.833862 -147.609661 
L 105.523001 -146.145798 
L 107.21214 -144.469187 
L 108.901279 -143.757424 
L 110.590418 -142.788772 
L 112.279557 -140.550806 
L 113.968696 -140.612456 
L 115.657835 -139.162552 
L 117.346974 -138.254821 
L 119.036113 -137.283412 
L 120.725252 -136.216791 
L 122.414391 -134.204039 
L 124.10353 -133.754433 
L 125.792669 -131.928021 
L 127.481808 -131.882547 
L 129.170947 -130.218805 
L 130.860086 -128.915389 
L 132.549225 -128.187172 
L 134.238364 -127.573505 
L 135.927503 -126.302395 
L 137.616642 -125.613016 
L 139.305781 -124.882372 
L 140.99492 -124.224837 
L 142.684059 -122.928149 
L 144.373198 -124.814618 
L 146.062337 -122.073495 
L 147.751476 -120.816952 
L 149.440615 -119.217938 
L 151.129754 -117.86576 
L 152.818893 -116.438753 
L 154.508032 -114.670184 
L 156.197171 -114.047004 
L 157.88631 -113.784139 
L 159.575449 -113.163201 
L 161.264588 -111.829845 
L 162.953727 -111.138992 
L 164.642866 -110.399991 
L 166.332005 -110.289935 
L 168.021144 -109.574818 
L 169.710283 -110.220279 
L 171.399422 -109.234316 
L 173.088561 -109.018872 
L 174.7777 -108.822092 
L 176.466839 -109.004795 
L 178.155978 -108.762042 
L 179.845117 -108.846507 
L 181.534256 -108.340321 
L 183.223395 -109.221442 
L 184.912534 -108.854921 
L 186.601673 -108.246561 
L 188.290812 -109.284898 
L 189.979951 -108.02976 
L 191.66909 -108.705571 
L 193.358229 -108.425571 
L 193.358229 -111.517522 
L 193.358229 -111.517522 
L 191.66909 -111.183807 
L 189.979951 -111.397952 
L 188.290812 -110.810632 
L 186.601673 -110.893699 
L 184.912534 -110.768781 
L 183.223395 -110.89151 
L 181.534256 -111.33129 
L 179.845117 -111.575673 
L 178.155978 -111.252188 
L 176.466839 -111.495781 
L 174.7777 -111.835276 
L 173.088561 -111.616719 
L 171.399422 -111.055752 
L 169.710283 -112.110989 
L 168.021144 -112.572074 
L 166.332005 -113.114196 
L 164.642866 -112.426333 
L 162.953727 -113.782247 
L 161.264588 -114.303628 
L 159.575449 -114.22606 
L 157.88631 -115.967164 
L 156.197171 -116.318401 
L 154.508032 -117.369121 
L 152.818893 -118.003244 
L 151.129754 -118.961508 
L 149.440615 -121.182155 
L 147.751476 -123.012239 
L 146.062337 -124.185972 
L 144.373198 -126.849817 
L 142.684059 -124.812131 
L 140.99492 -125.794734 
L 139.305781 -126.259423 
L 137.616642 -127.418994 
L 135.927503 -128.455778 
L 134.238364 -129.803676 
L 132.549225 -130.741959 
L 130.860086 -131.146128 
L 129.170947 -132.245404 
L 127.481808 -134.061574 
L 125.792669 -134.521318 
L 124.10353 -135.822035 
L 122.414391 -136.663059 
L 120.725252 -138.047467 
L 119.036113 -139.454675 
L 117.346974 -139.657754 
L 115.657835 -140.997376 
L 113.968696 -142.716702 
L 112.279557 -143.610221 
L 110.590418 -144.473252 
L 108.901279 -145.441271 
L 107.21214 -147.394971 
L 105.523001 -148.301074 
L 103.833862 -149.509933 
L 102.144723 -150.801618 
L 100.455584 -152.363909 
L 98.766445 -154.349634 
L 97.077306 -155.558486 
L 95.388167 -155.885412 
L 93.699028 -155.784487 
L 92.009889 -133.6681 
L 90.32075 -135.828388 
L 88.631611 -134.1506 
L 86.942472 -135.249671 
L 85.253333 -134.701399 
L 83.564194 -133.628533 
L 81.875055 -134.042656 
L 80.185916 -132.766555 
L 78.496777 -134.26509 
L 76.807638 -133.677335 
L 75.118499 -133.770991 
L 73.42936 -133.319589 
L 71.740221 -132.723615 
L 70.051082 -131.732701 
L 68.361943 -131.354882 
L 66.672804 -128.1215 
L 64.983665 -130.447594 
L 63.294526 -128.942625 
L 61.605387 -129.155194 
L 59.916248 -127.871145 
L 58.227109 -125.726938 
L 56.53797 -123.308892 
L 54.848831 -120.460231 
L 53.159692 -119.893778 
L 51.470553 -116.02963 
L 49.781414 -111.353364 
L 48.092275 -104.259035 
L 46.403136 -98.550269 
L 44.713997 -81.136738 
L 43.024858 -57.751338 
z
" style="stroke: #31688e; stroke-opacity: 0.2; stroke-width: 0.8"/>
    </defs>
    <g clip-path="url(#p292dc3ea4b)">
     <use xlink:href="#m1ce19bb562" x="0" y="182.613543" style="fill: #31688e; fill-opacity: 0.2; stroke: #31688e; stroke-opacity: 0.2; stroke-width: 0.8"/>
    </g>
   </g>
   <g id="line2d_15">
    <path d="M 43.024858 120.147791 
L 44.713997 98.467669 
L 46.403136 87.370281 
L 48.092275 76.241679 
L 49.781414 71.455168 
L 51.470553 67.145566 
L 53.159692 63.859468 
L 54.848831 60.168323 
L 56.53797 60.908729 
L 58.227109 58.996738 
L 59.916248 57.109427 
L 61.605387 58.418205 
L 63.294526 53.800826 
L 64.983665 53.450222 
L 66.672804 53.926405 
L 68.361943 51.292154 
L 70.051082 52.951536 
L 71.740221 53.475628 
L 73.42936 52.495678 
L 75.118499 52.30114 
L 76.807638 54.022222 
L 78.496777 51.257311 
L 80.185916 51.659454 
L 81.875055 49.817874 
L 83.564194 49.600833 
L 85.253333 50.781128 
L 86.942472 49.225549 
L 88.631611 49.542036 
L 90.32075 51.334256 
L 92.009889 48.706538 
L 93.699028 22.919337 
L 95.388167 22.509936 
L 97.077306 22.999911 
L 98.766445 24.011074 
L 100.455584 25.723446 
L 102.144723 27.072147 
L 103.833862 28.341001 
L 105.523001 29.898033 
L 107.21214 30.841688 
L 108.901279 31.674283 
L 110.590418 32.498892 
L 112.279557 32.474938 
L 113.968696 33.115172 
L 115.657835 33.531106 
L 117.346974 33.990594 
L 119.036113 35.378493 
L 120.725252 35.084508 
L 122.414391 35.422772 
L 124.10353 36.190763 
L 125.792669 36.433936 
L 127.481808 36.701789 
L 129.170947 36.557337 
L 130.860086 36.799784 
L 132.549225 36.524672 
L 134.238364 37.550353 
L 135.927503 38.118724 
L 137.616642 37.636008 
L 139.305781 37.34783 
L 140.99492 37.773201 
L 142.684059 38.188409 
L 144.373198 30.840962 
L 146.062337 30.467129 
L 147.751476 30.350987 
L 149.440615 30.346632 
L 151.129754 30.414865 
L 152.818893 30.361876 
L 154.508032 30.245007 
L 156.197171 30.323403 
L 157.88631 30.247185 
L 159.575449 30.333566 
L 161.264588 30.297271 
L 162.953727 30.317596 
L 164.642866 30.335744 
L 166.332005 30.289287 
L 168.021144 30.263881 
L 169.710283 30.402525 
L 171.399422 30.415591 
L 173.088561 30.356068 
L 174.7777 30.464952 
L 176.466839 30.411962 
L 178.155978 30.263155 
L 179.845117 30.434464 
L 181.534256 30.425754 
L 183.223395 30.407607 
L 184.912534 30.378571 
L 186.601673 30.464226 
L 188.290812 30.38583 
L 189.979951 30.454063 
L 191.66909 30.510683 
L 193.358229 30.441723 
" clip-path="url(#p292dc3ea4b)" style="fill: none; stroke: #35b779; stroke-width: 1.2; stroke-linecap: round"/>
    <defs>
     <path id="m756934d3bd" d="M 0 2.5 
C 0.663008 2.5 1.29895 2.236584 1.767767 1.767767 
C 2.236584 1.29895 2.5 0.663008 2.5 0 
C 2.5 -0.663008 2.236584 -1.29895 1.767767 -1.767767 
C 1.29895 -2.236584 0.663008 -2.5 0 -2.5 
C -0.663008 -2.5 -1.29895 -2.236584 -1.767767 -1.767767 
C -2.236584 -1.29895 -2.5 -0.663008 -2.5 0 
C -2.5 0.663008 -2.236584 1.29895 -1.767767 1.767767 
C -1.29895 2.236584 -0.663008 2.5 0 2.5 
z
" style="stroke: #ffffff; stroke-width: 0.5"/>
    </defs>
    <g clip-path="url(#p292dc3ea4b)">
     <use xlink:href="#m756934d3bd" x="43.024858" y="120.147791" style="fill: #35b779; stroke: #ffffff; stroke-width: 0.5"/>
     <use xlink:href="#m756934d3bd" x="59.916248" y="57.109427" style="fill: #35b779; stroke: #ffffff; stroke-width: 0.5"/>
     <use xlink:href="#m756934d3bd" x="76.807638" y="54.022222" style="fill: #35b779; stroke: #ffffff; stroke-width: 0.5"/>
     <use xlink:href="#m756934d3bd" x="93.699028" y="22.919337" style="fill: #35b779; stroke: #ffffff; stroke-width: 0.5"/>
     <use xlink:href="#m756934d3bd" x="110.590418" y="32.498892" style="fill: #35b779; stroke: #ffffff; stroke-width: 0.5"/>
     <use xlink:href="#m756934d3bd" x="127.481808" y="36.701789" style="fill: #35b779; stroke: #ffffff; stroke-width: 0.5"/>
     <use xlink:href="#m756934d3bd" x="144.373198" y="30.840962" style="fill: #35b779; stroke: #ffffff; stroke-width: 0.5"/>
     <use xlink:href="#m756934d3bd" x="161.264588" y="30.297271" style="fill: #35b779; stroke: #ffffff; stroke-width: 0.5"/>
     <use xlink:href="#m756934d3bd" x="178.155978" y="30.263155" style="fill: #35b779; stroke: #ffffff; stroke-width: 0.5"/>
    </g>
   </g>
   <g id="line2d_16">
    <path d="M 43.024858 126.848471 
L 44.713997 103.339835 
L 46.403136 91.584066 
L 48.092275 81.655358 
L 49.781414 74.749978 
L 51.470553 69.32904 
L 53.159692 64.504783 
L 54.848831 63.96327 
L 56.53797 60.690963 
L 58.227109 59.936764 
L 59.916248 56.487341 
L 61.605387 55.881949 
L 63.294526 55.148076 
L 64.983665 55.250426 
L 66.672804 58.355053 
L 68.361943 54.128202 
L 70.051082 52.563911 
L 71.740221 52.815795 
L 73.42936 51.5542 
L 75.118499 51.377083 
L 76.807638 50.666438 
L 78.496777 51.85254 
L 80.185916 52.171931 
L 81.875055 51.176738 
L 83.564194 51.40757 
L 85.253333 50.519808 
L 86.942472 49.452026 
L 88.631611 51.652195 
L 90.32075 48.398035 
L 92.009889 51.231179 
L 93.699028 27.603498 
L 95.388167 27.241279 
L 97.077306 27.896757 
L 98.766445 29.057453 
L 100.455584 30.91718 
L 102.144723 32.593984 
L 103.833862 34.053746 
L 105.523001 35.390107 
L 107.21214 36.681464 
L 108.901279 38.014196 
L 110.590418 38.982531 
L 112.279557 40.53303 
L 113.968696 40.948964 
L 115.657835 42.533579 
L 117.346974 43.657255 
L 119.036113 44.244499 
L 120.725252 45.481414 
L 122.414391 47.179994 
L 124.10353 47.825309 
L 125.792669 49.388874 
L 127.481808 49.641483 
L 129.170947 51.381438 
L 130.860086 52.582784 
L 132.549225 53.148978 
L 134.238364 53.924953 
L 135.927503 55.234456 
L 137.616642 56.097538 
L 139.305781 57.042645 
L 140.99492 57.603758 
L 142.684059 58.743403 
L 144.373198 56.781326 
L 146.062337 59.48381 
L 147.751476 60.698948 
L 149.440615 62.413497 
L 151.129754 64.199909 
L 152.818893 65.392545 
L 154.508032 66.593891 
L 156.197171 67.430841 
L 157.88631 67.737892 
L 159.575449 68.918913 
L 161.264588 69.546807 
L 162.953727 70.152924 
L 164.642866 71.200381 
L 166.332005 70.911478 
L 168.021144 71.540097 
L 169.710283 71.447909 
L 171.399422 72.468509 
L 173.088561 72.295748 
L 174.7777 72.284859 
L 176.466839 72.363255 
L 178.155978 72.606428 
L 179.845117 72.402453 
L 181.534256 72.777738 
L 183.223395 72.557068 
L 184.912534 72.801692 
L 186.601673 73.043413 
L 188.290812 72.565778 
L 189.979951 72.899687 
L 191.66909 72.668854 
L 193.358229 72.641997 
" clip-path="url(#p292dc3ea4b)" style="fill: none; stroke-dasharray: 4.8,1.8; stroke-dashoffset: 0; stroke: #31688e; stroke-width: 1.2"/>
    <defs>
     <path id="m45ddf832b1" d="M -1.25 2.5 
L 0 1.25 
L 1.25 2.5 
L 2.5 1.25 
L 1.25 0 
L 2.5 -1.25 
L 1.25 -2.5 
L 0 -1.25 
L -1.25 -2.5 
L -2.5 -1.25 
L -1.25 0 
L -2.5 1.25 
z
" style="stroke: #ffffff; stroke-width: 0.5; stroke-linejoin: miter"/>
    </defs>
    <g clip-path="url(#p292dc3ea4b)">
     <use xlink:href="#m45ddf832b1" x="43.024858" y="126.848471" style="fill: #31688e; stroke: #ffffff; stroke-width: 0.5; stroke-linejoin: miter"/>
     <use xlink:href="#m45ddf832b1" x="59.916248" y="56.487341" style="fill: #31688e; stroke: #ffffff; stroke-width: 0.5; stroke-linejoin: miter"/>
     <use xlink:href="#m45ddf832b1" x="76.807638" y="50.666438" style="fill: #31688e; stroke: #ffffff; stroke-width: 0.5; stroke-linejoin: miter"/>
     <use xlink:href="#m45ddf832b1" x="93.699028" y="27.603498" style="fill: #31688e; stroke: #ffffff; stroke-width: 0.5; stroke-linejoin: miter"/>
     <use xlink:href="#m45ddf832b1" x="110.590418" y="38.982531" style="fill: #31688e; stroke: #ffffff; stroke-width: 0.5; stroke-linejoin: miter"/>
     <use xlink:href="#m45ddf832b1" x="127.481808" y="49.641483" style="fill: #31688e; stroke: #ffffff; stroke-width: 0.5; stroke-linejoin: miter"/>
     <use xlink:href="#m45ddf832b1" x="144.373198" y="56.781326" style="fill: #31688e; stroke: #ffffff; stroke-width: 0.5; stroke-linejoin: miter"/>
     <use xlink:href="#m45ddf832b1" x="161.264588" y="69.546807" style="fill: #31688e; stroke: #ffffff; stroke-width: 0.5; stroke-linejoin: miter"/>
     <use xlink:href="#m45ddf832b1" x="178.155978" y="72.606428" style="fill: #31688e; stroke: #ffffff; stroke-width: 0.5; stroke-linejoin: miter"/>
    </g>
   </g>
   <g id="line2d_17"/>
   <g id="line2d_18"/>
   <g id="line2d_19">
    <path d="M 95.388167 150.656173 
L 95.388167 5.478406 
" clip-path="url(#p292dc3ea4b)" style="fill: none; stroke-dasharray: 1.85,0.8; stroke-dashoffset: 0; stroke: #000000; stroke-width: 0.5"/>
   </g>
   <g id="patch_3">
    <path d="M 35.508189 150.656173 
L 35.508189 5.478406 
" style="fill: none; stroke: #000000; stroke-linejoin: miter; stroke-linecap: square"/>
   </g>
   <g id="patch_4">
    <path d="M 35.508189 150.656173 
L 200.874897 150.656173 
" style="fill: none; stroke: #000000; stroke-linejoin: miter; stroke-linecap: square"/>
   </g>
   <g id="legend_1">
    <g id="patch_5">
     <path d="M 117.35027 146.256173 
L 194.714897 146.256173 
Q 196.474897 146.256173 196.474897 144.496173 
L 196.474897 119.944349 
Q 196.474897 118.184349 194.714897 118.184349 
L 117.35027 118.184349 
Q 115.59027 118.184349 115.59027 119.944349 
L 115.59027 144.496173 
Q 115.59027 146.256173 117.35027 146.256173 
z
" style="fill: #ffffff; opacity: 0.8; stroke: #cccccc; stroke-width: 0.8; stroke-linejoin: miter"/>
    </g>
    <g id="line2d_20">
     <path d="M 119.11027 125.199683 
L 127.91027 125.199683 
L 136.71027 125.199683 
" style="fill: none; stroke: #35b779; stroke-width: 1.2; stroke-linecap: round"/>
     <g>
      <use xlink:href="#m756934d3bd" x="127.91027" y="125.199683" style="fill: #35b779; stroke: #ffffff; stroke-width: 0.5"/>
     </g>
    </g>
    <g id="text_17">
     <!-- LAP (Ours) -->
     <g transform="translate(143.75027 128.279683) scale(0.088 -0.088)">
      <defs>
       <path id="CMR17-4c" d="M 3469 1615 
L 3354 1615 
C 3302 983 3219 166 2125 166 
L 1530 166 
C 1274 166 1261 197 1261 414 
L 1261 3898 
C 1261 4129 1274 4192 1760 4192 
L 1901 4192 
L 1901 4352 
C 1638 4352 1331 4352 1069 4352 
C 870 4352 512 4352 326 4352 
L 326 4192 
C 768 4192 838 4192 838 3905 
L 838 452 
C 838 166 768 166 326 166 
L 326 0 
L 3315 0 
L 3469 1615 
z
" transform="scale(0.015625)"/>
       <path id="CMR17-50" d="M 1267 2042 
L 2291 2042 
C 3117 2042 3718 2578 3718 3184 
C 3718 3791 3130 4352 2291 4352 
L 333 4352 
L 333 4186 
C 774 4186 845 4186 845 3899 
L 845 446 
C 845 160 774 160 333 160 
L 333 0 
C 518 0 858 0 1056 0 
C 1254 0 1594 0 1779 0 
L 1779 160 
C 1338 160 1267 160 1267 446 
L 1267 2042 
z
M 1254 2176 
L 1254 3938 
C 1254 4155 1267 4186 1523 4186 
L 2170 4186 
C 2995 4186 3232 3714 3232 3184 
C 3232 2604 2950 2176 2170 2176 
L 1254 2176 
z
" transform="scale(0.015625)"/>
       <path id="CMR17-4f" d="M 4307 2135 
C 4307 3437 3366 4416 2304 4416 
C 1216 4416 294 3424 294 2135 
C 294 845 1229 -128 2298 -128 
C 3392 -128 4307 864 4307 2135 
z
M 2304 -13 
C 1574 -13 781 711 781 2217 
C 781 3716 1651 4301 2298 4301 
C 2976 4301 3821 3698 3821 2217 
C 3821 686 3008 -13 2304 -13 
z
" transform="scale(0.015625)"/>
      </defs>
      <use xlink:href="#CMR17-4c" transform="scale(0.996264)"/>
      <use xlink:href="#CMR17-41" transform="translate(57.381408 0) scale(0.996264)"/>
      <use xlink:href="#CMR17-50" transform="translate(126.453838 0) scale(0.996264)"/>
      <use xlink:href="#CMR17-28" transform="translate(219.116105 0) scale(0.996264)"/>
      <use xlink:href="#CMR17-4f" transform="translate(254.396872 0) scale(0.996264)"/>
      <use xlink:href="#CMR17-75" transform="translate(326.111661 0) scale(0.996264)"/>
      <use xlink:href="#CMR17-72" transform="translate(377.007031 0) scale(0.996264)"/>
      <use xlink:href="#CMR17-73" transform="translate(412.287798 0) scale(0.996264)"/>
      <use xlink:href="#CMR17-29" transform="translate(448.089136 0) scale(0.996264)"/>
     </g>
    </g>
    <g id="line2d_21">
     <path d="M 119.11027 137.95146 
L 127.91027 137.95146 
L 136.71027 137.95146 
" style="fill: none; stroke-dasharray: 4.8,1.8; stroke-dashoffset: 0; stroke: #31688e; stroke-width: 1.2"/>
     <g>
      <use xlink:href="#m45ddf832b1" x="127.91027" y="137.95146" style="fill: #31688e; stroke: #ffffff; stroke-width: 0.5; stroke-linejoin: miter"/>
     </g>
    </g>
    <g id="text_18">
     <!-- Standard -->
     <g transform="translate(143.75027 141.03146) scale(0.088 -0.088)">
      <defs>
       <path id="CMR17-53" d="M 2803 4290 
C 2803 4404 2797 4411 2758 4411 
C 2720 4411 2707 4385 2682 4328 
L 2490 3907 
C 2246 4257 1875 4416 1472 4416 
C 819 4416 294 3901 294 3253 
C 294 3056 339 2776 557 2510 
C 794 2218 1018 2167 1530 2033 
C 1722 1982 2042 1899 2106 1874 
C 2470 1722 2662 1341 2662 985 
C 2662 527 2336 38 1779 38 
C 1094 38 454 419 410 1311 
C 403 1413 397 1419 352 1419 
C 301 1419 294 1413 294 1285 
L 294 -1 
C 294 -115 301 -122 339 -122 
C 384 -122 397 -90 486 108 
C 493 127 493 140 614 381 
C 934 -39 1472 -128 1779 -128 
C 2477 -128 2970 451 2970 1124 
C 2970 1454 2848 1708 2778 1823 
C 2509 2230 2221 2306 1914 2382 
C 1869 2402 1856 2402 1498 2490 
C 1152 2579 1005 2624 845 2796 
C 666 2992 602 3196 602 3399 
C 602 3812 934 4263 1478 4263 
C 2157 4263 2579 3786 2675 2993 
C 2694 2878 2701 2872 2746 2872 
C 2803 2872 2803 2891 2803 2999 
L 2803 4290 
z
" transform="scale(0.015625)"/>
       <path id="CMR17-6e" d="M 2656 1933 
C 2656 2259 2592 2790 1837 2790 
C 1331 2790 1069 2400 973 2144 
L 966 2144 
L 966 2790 
L 211 2720 
L 211 2554 
C 589 2554 646 2515 646 2208 
L 646 428 
C 646 184 621 153 211 153 
L 211 -13 
C 365 0 646 0 813 0 
C 979 0 1267 0 1421 -13 
L 1421 153 
C 1011 153 986 178 986 428 
L 986 1658 
C 986 2247 1344 2688 1792 2688 
C 2266 2688 2317 2266 2317 1958 
L 2317 428 
C 2317 184 2291 153 1882 153 
L 1882 -13 
C 2035 0 2317 0 2483 0 
C 2650 0 2938 0 3091 -13 
L 3091 153 
C 2682 153 2656 178 2656 428 
L 2656 1933 
z
" transform="scale(0.015625)"/>
       <path id="CMR17-64" d="M 1869 4326 
L 1869 4160 
C 2246 4160 2304 4122 2304 3820 
L 2304 2345 
C 2278 2377 2016 2790 1498 2790 
C 845 2790 211 2208 211 1364 
C 211 525 806 -64 1434 -64 
C 1978 -64 2259 337 2291 380 
L 2291 -63 
L 3066 -63 
L 3066 128 
C 2688 128 2630 166 2630 473 
L 2630 4396 
L 1869 4326 
z
M 2291 755 
C 2291 563 2176 390 2029 262 
C 1811 70 1594 38 1472 38 
C 1286 38 621 134 621 1356 
C 621 2612 1363 2688 1530 2688 
C 1824 2688 2061 2522 2208 2291 
C 2291 2157 2291 2138 2291 2023 
L 2291 755 
z
" transform="scale(0.015625)"/>
      </defs>
      <use xlink:href="#CMR17-53" transform="scale(0.996264)"/>
      <use xlink:href="#CMR17-74" transform="translate(50.89537 0) scale(0.996264)"/>
      <use xlink:href="#CMR17-61" transform="translate(86.176138 0) scale(0.996264)"/>
      <use xlink:href="#CMR17-6e" transform="translate(131.866615 0) scale(0.996264)"/>
      <use xlink:href="#CMR17-64" transform="translate(182.761984 0) scale(0.996264)"/>
      <use xlink:href="#CMR17-61" transform="translate(233.657354 0) scale(0.996264)"/>
      <use xlink:href="#CMR17-72" transform="translate(279.347831 0) scale(0.996264)"/>
      <use xlink:href="#CMR17-64" transform="translate(314.628599 0) scale(0.996264)"/>
     </g>
    </g>
   </g>
  </g>
 </g>
 <defs>
  <clipPath id="p292dc3ea4b">
   <rect x="35.508189" y="5.478406" width="165.366708" height="145.177767"/>
  </clipPath>
 </defs>
</svg>
