<?xml version="1.0" encoding="utf-8" standalone="no"?>
<!DOCTYPE svg PUBLIC "-//W3C//DTD SVG 1.1//EN"
  "http://www.w3.org/Graphics/SVG/1.1/DTD/svg11.dtd">
<svg xmlns:xlink="http://www.w3.org/1999/xlink" width="202.903937pt" height="182.613543pt" viewBox="0 0 202.903937 182.613543" xmlns="http://www.w3.org/2000/svg" version="1.1">
 <metadata>
  <rdf:RDF xmlns:dc="http://purl.org/dc/elements/1.1/" xmlns:cc="http://creativecommons.org/ns#" xmlns:rdf="http://www.w3.org/1999/02/22-rdf-syntax-ns#">
   <cc:Work>
    <dc:type rdf:resource="http://purl.org/dc/dcmitype/StillImage"/>
    <dc:date>2024-05-19T14:39:09.228588</dc:date>
    <dc:format>image/svg+xml</dc:format>
    <dc:creator>
     <cc:Agent>
      <dc:title>Matplotlib v3.8.2, https://matplotlib.org/</dc:title>
     </cc:Agent>
    </dc:creator>
   </cc:Work>
  </rdf:RDF>
 </metadata>
 <defs>
  <style type="text/css">*{stroke-linejoin: round; stroke-linecap: butt}</style>
 </defs>
 <g id="figure_1">
  <g id="patch_1">
   <path d="M 0 182.613543 
L 202.903937 182.613543 
L 202.903937 0 
L 0 0 
z
" style="fill: #ffffff"/>
  </g>
  <g id="axes_1">
   <g id="patch_2">
    <path d="M 35.508189 150.656173 
L 200.874897 150.656173 
L 200.874897 5.478406 
L 35.508189 5.478406 
z
" style="fill: #ffffff"/>
   </g>
   <g id="matplotlib.axis_1">
    <g id="xtick_1">
     <g id="line2d_1">
      <path d="M 41.335719 150.656173 
L 41.335719 5.478406 
" clip-path="url(#p0a1496e0e5)" style="fill: none; stroke-dasharray: 3.7,1.6; stroke-dashoffset: 0; stroke: #b0b0b0; stroke-opacity: 0.5"/>
     </g>
     <g id="text_1">
      <!-- $\mathdefault{0}$ -->
      <g transform="translate(39.006919 165.044457) scale(0.088 -0.088)">
       <defs>
        <path id="CMR17-30" d="M 2688 2025 
C 2688 2416 2682 3080 2413 3591 
C 2176 4039 1798 4198 1466 4198 
C 1158 4198 768 4058 525 3597 
C 269 3118 243 2524 243 2025 
C 243 1661 250 1106 448 619 
C 723 -39 1216 -128 1466 -128 
C 1760 -128 2208 -7 2470 600 
C 2662 1042 2688 1559 2688 2025 
z
M 1466 -26 
C 1056 -26 813 325 723 812 
C 653 1188 653 1738 653 2096 
C 653 2588 653 2997 736 3387 
C 858 3929 1216 4096 1466 4096 
C 1728 4096 2067 3923 2189 3400 
C 2272 3036 2278 2607 2278 2096 
C 2278 1680 2278 1169 2202 792 
C 2067 95 1690 -26 1466 -26 
z
" transform="scale(0.015625)"/>
       </defs>
       <use xlink:href="#CMR17-30" transform="scale(0.996264)"/>
      </g>
     </g>
    </g>
    <g id="xtick_2">
     <g id="line2d_2">
      <path d="M 75.118499 150.656173 
L 75.118499 5.478406 
" clip-path="url(#p0a1496e0e5)" style="fill: none; stroke-dasharray: 3.7,1.6; stroke-dashoffset: 0; stroke: #b0b0b0; stroke-opacity: 0.5"/>
     </g>
     <g id="text_2">
      <!-- $\mathdefault{20}$ -->
      <g transform="translate(70.4609 165.044457) scale(0.088 -0.088)">
       <defs>
        <path id="CMR17-32" d="M 2669 989 
L 2554 989 
C 2490 536 2438 459 2413 420 
C 2381 369 1920 369 1830 369 
L 602 369 
C 832 619 1280 1072 1824 1597 
C 2214 1967 2669 2402 2669 3035 
C 2669 3790 2067 4224 1395 4224 
C 691 4224 262 3604 262 3030 
C 262 2780 448 2748 525 2748 
C 589 2748 781 2787 781 3010 
C 781 3207 614 3264 525 3264 
C 486 3264 448 3258 422 3245 
C 544 3790 915 4058 1306 4058 
C 1862 4058 2227 3617 2227 3035 
C 2227 2479 1901 2000 1536 1584 
L 262 146 
L 262 0 
L 2515 0 
L 2669 989 
z
" transform="scale(0.015625)"/>
       </defs>
       <use xlink:href="#CMR17-32" transform="scale(0.996264)"/>
       <use xlink:href="#CMR17-30" transform="translate(45.690477 0) scale(0.996264)"/>
      </g>
     </g>
    </g>
    <g id="xtick_3">
     <g id="line2d_3">
      <path d="M 108.901279 150.656173 
L 108.901279 5.478406 
" clip-path="url(#p0a1496e0e5)" style="fill: none; stroke-dasharray: 3.7,1.6; stroke-dashoffset: 0; stroke: #b0b0b0; stroke-opacity: 0.5"/>
     </g>
     <g id="text_3">
      <!-- $\mathdefault{40}$ -->
      <g transform="translate(104.243681 165.044457) scale(0.088 -0.088)">
       <defs>
        <path id="CMR17-34" d="M 2150 4122 
C 2150 4256 2144 4256 2029 4256 
L 128 1254 
L 128 1088 
L 1779 1088 
L 1779 457 
C 1779 224 1766 160 1318 160 
L 1197 160 
L 1197 0 
C 1402 0 1747 0 1965 0 
C 2182 0 2528 0 2733 0 
L 2733 160 
L 2611 160 
C 2163 160 2150 224 2150 457 
L 2150 1088 
L 2803 1088 
L 2803 1254 
L 2150 1254 
L 2150 4122 
z
M 1798 3703 
L 1798 1254 
L 256 1254 
L 1798 3703 
z
" transform="scale(0.015625)"/>
       </defs>
       <use xlink:href="#CMR17-34" transform="scale(0.996264)"/>
       <use xlink:href="#CMR17-30" transform="translate(45.690477 0) scale(0.996264)"/>
      </g>
     </g>
    </g>
    <g id="xtick_4">
     <g id="line2d_4">
      <path d="M 142.684059 150.656173 
L 142.684059 5.478406 
" clip-path="url(#p0a1496e0e5)" style="fill: none; stroke-dasharray: 3.7,1.6; stroke-dashoffset: 0; stroke: #b0b0b0; stroke-opacity: 0.5"/>
     </g>
     <g id="text_4">
      <!-- $\mathdefault{60}$ -->
      <g transform="translate(138.026461 165.044457) scale(0.088 -0.088)">
       <defs>
        <path id="CMR17-36" d="M 678 2176 
C 678 3690 1395 4032 1811 4032 
C 1946 4032 2272 4009 2400 3776 
C 2298 3776 2106 3776 2106 3553 
C 2106 3381 2246 3323 2336 3323 
C 2394 3323 2566 3348 2566 3560 
C 2566 3954 2246 4179 1805 4179 
C 1043 4179 243 3390 243 1984 
C 243 253 966 -128 1478 -128 
C 2099 -128 2688 427 2688 1283 
C 2688 2081 2170 2662 1517 2662 
C 1126 2662 838 2407 678 1960 
L 678 2176 
z
M 1478 25 
C 691 25 691 1200 691 1436 
C 691 1896 909 2560 1504 2560 
C 1613 2560 1926 2560 2138 2120 
C 2253 1870 2253 1609 2253 1289 
C 2253 944 2253 690 2118 434 
C 1978 171 1773 25 1478 25 
z
" transform="scale(0.015625)"/>
       </defs>
       <use xlink:href="#CMR17-36" transform="scale(0.996264)"/>
       <use xlink:href="#CMR17-30" transform="translate(45.690477 0) scale(0.996264)"/>
      </g>
     </g>
    </g>
    <g id="xtick_5">
     <g id="line2d_5">
      <path d="M 176.466839 150.656173 
L 176.466839 5.478406 
" clip-path="url(#p0a1496e0e5)" style="fill: none; stroke-dasharray: 3.7,1.6; stroke-dashoffset: 0; stroke: #b0b0b0; stroke-opacity: 0.5"/>
     </g>
     <g id="text_5">
      <!-- $\mathdefault{80}$ -->
      <g transform="translate(171.809241 165.044457) scale(0.088 -0.088)">
       <defs>
        <path id="CMR17-38" d="M 1741 2264 
C 2144 2467 2554 2773 2554 3263 
C 2554 3841 1990 4179 1472 4179 
C 890 4179 378 3759 378 3180 
C 378 3021 416 2747 666 2505 
C 730 2442 998 2251 1171 2130 
C 883 1983 211 1634 211 934 
C 211 279 838 -128 1459 -128 
C 2144 -128 2720 362 2720 1010 
C 2720 1590 2330 1857 2074 2029 
L 1741 2264 
z
M 902 2822 
C 851 2854 595 3051 595 3351 
C 595 3739 998 4032 1459 4032 
C 1965 4032 2336 3676 2336 3262 
C 2336 2669 1670 2331 1638 2331 
C 1632 2331 1626 2331 1574 2370 
L 902 2822 
z
M 2080 1519 
C 2176 1449 2483 1240 2483 851 
C 2483 381 2010 25 1472 25 
C 890 25 448 438 448 940 
C 448 1443 838 1862 1280 2060 
L 2080 1519 
z
" transform="scale(0.015625)"/>
       </defs>
       <use xlink:href="#CMR17-38" transform="scale(0.996264)"/>
       <use xlink:href="#CMR17-30" transform="translate(45.690477 0) scale(0.996264)"/>
      </g>
     </g>
    </g>
    <g id="text_6">
     <!-- Epoch -->
     <g transform="translate(104.607778 177.390934) scale(0.096 -0.096)">
      <defs>
       <path id="CMR17-45" d="M 3885 1615 
L 3770 1615 
C 3629 676 3546 166 2419 166 
L 1530 166 
C 1274 166 1261 197 1261 414 
L 1261 2176 
L 1862 2176 
C 2464 2176 2522 1960 2522 1430 
L 2637 1430 
L 2637 3081 
L 2522 3081 
C 2522 2557 2464 2342 1862 2342 
L 1261 2342 
L 1261 3913 
C 1261 4128 1274 4160 1530 4160 
L 2406 4160 
C 3398 4160 3514 3769 3603 2929 
L 3718 2929 
L 3565 4325 
L 326 4325 
L 326 4160 
C 768 4160 838 4160 838 3874 
L 838 451 
C 838 166 768 166 326 166 
L 326 0 
L 3654 0 
L 3885 1615 
z
" transform="scale(0.015625)"/>
       <path id="CMR17-70" d="M 1408 -1063 
C 998 -1063 973 -1037 973 -789 
L 973 402 
C 1158 134 1427 -38 1766 -38 
C 2406 -38 3053 523 3053 1388 
C 3053 2191 2496 2802 1837 2802 
C 1453 2802 1139 2592 960 2338 
L 960 2802 
L 198 2732 
L 198 2567 
C 576 2567 634 2528 634 2223 
L 634 -789 
C 634 -1031 608 -1063 198 -1063 
L 198 -1228 
C 352 -1216 634 -1216 800 -1216 
C 966 -1216 1254 -1216 1408 -1228 
L 1408 -1063 
z
M 973 2012 
C 973 2102 973 2235 1222 2471 
C 1254 2497 1472 2688 1792 2688 
C 2259 2688 2643 2108 2643 1382 
C 2643 656 2234 64 1728 64 
C 1498 64 1248 172 1056 472 
C 973 612 973 650 973 752 
L 973 2012 
z
" transform="scale(0.015625)"/>
       <path id="CMR17-6f" d="M 2758 1356 
C 2758 2176 2163 2816 1466 2816 
C 768 2816 173 2176 173 1356 
C 173 551 768 -64 1466 -64 
C 2163 -64 2758 551 2758 1356 
z
M 1466 51 
C 1165 51 909 230 762 480 
C 602 767 582 1126 582 1408 
C 582 1677 595 2010 762 2298 
C 890 2509 1139 2714 1466 2714 
C 1754 2714 1997 2554 2150 2330 
C 2349 2029 2349 1607 2349 1408 
C 2349 1158 2336 775 2163 467 
C 1984 173 1709 51 1466 51 
z
" transform="scale(0.015625)"/>
       <path id="CMR17-63" d="M 2234 2240 
C 2112 2240 1933 2240 1933 2017 
C 1933 1838 2080 1787 2163 1787 
C 2208 1787 2394 1807 2394 2024 
C 2394 2467 1958 2803 1466 2803 
C 787 2803 211 2178 211 1363 
C 211 516 813 -64 1466 -64 
C 2259 -64 2458 677 2458 748 
C 2458 774 2451 793 2406 793 
C 2362 793 2355 787 2330 703 
C 2163 180 1798 51 1523 51 
C 1114 51 621 427 621 1369 
C 621 2338 1094 2688 1472 2688 
C 1722 2688 2093 2573 2234 2240 
z
" transform="scale(0.015625)"/>
       <path id="CMR17-68" d="M 2656 1933 
C 2656 2259 2592 2790 1837 2790 
C 1312 2790 1056 2368 979 2157 
L 973 2157 
L 973 4396 
L 211 4326 
L 211 4160 
C 589 4160 646 4122 646 3817 
L 646 426 
C 646 184 621 153 211 153 
L 211 -13 
C 365 0 646 0 813 0 
C 979 0 1267 0 1421 -13 
L 1421 153 
C 1011 153 986 178 986 428 
L 986 1658 
C 986 2247 1344 2688 1792 2688 
C 2266 2688 2317 2266 2317 1958 
L 2317 428 
C 2317 184 2291 153 1882 153 
L 1882 -13 
C 2035 0 2317 0 2483 0 
C 2650 0 2938 0 3091 -13 
L 3091 153 
C 2682 153 2656 178 2656 428 
L 2656 1933 
z
" transform="scale(0.015625)"/>
      </defs>
      <use xlink:href="#CMR17-45" transform="scale(0.996264)"/>
      <use xlink:href="#CMR17-70" transform="translate(62.586301 0) scale(0.996264)"/>
      <use xlink:href="#CMR17-6f" transform="translate(116.084109 0) scale(0.996264)"/>
      <use xlink:href="#CMR17-63" transform="translate(164.377025 0) scale(0.996264)"/>
      <use xlink:href="#CMR17-68" transform="translate(202.260231 0) scale(0.996264)"/>
     </g>
    </g>
   </g>
   <g id="matplotlib.axis_2">
    <g id="ytick_1">
     <g id="line2d_6">
      <path d="M 35.508189 144.252948 
L 200.874897 144.252948 
" clip-path="url(#p0a1496e0e5)" style="fill: none; stroke-dasharray: 3.7,1.6; stroke-dashoffset: 0; stroke: #b0b0b0; stroke-opacity: 0.5"/>
     </g>
     <g id="text_7">
      <!-- $\mathdefault{0}$ -->
      <g transform="translate(22.550591 147.29709) scale(0.088 -0.088)">
       <use xlink:href="#CMR17-30" transform="scale(0.996264)"/>
      </g>
     </g>
    </g>
    <g id="ytick_2">
     <g id="line2d_7">
      <path d="M 35.508189 124.478299 
L 200.874897 124.478299 
" clip-path="url(#p0a1496e0e5)" style="fill: none; stroke-dasharray: 3.7,1.6; stroke-dashoffset: 0; stroke: #b0b0b0; stroke-opacity: 0.5"/>
     </g>
     <g id="text_8">
      <!-- $\mathdefault{1}$ -->
      <g transform="translate(22.550591 127.522441) scale(0.088 -0.088)">
       <defs>
        <path id="CMR17-31" d="M 1702 4058 
C 1702 4192 1696 4192 1606 4192 
C 1357 3916 979 3827 621 3827 
C 602 3827 570 3827 563 3808 
C 557 3795 557 3782 557 3648 
C 755 3648 1088 3686 1344 3839 
L 1344 461 
C 1344 236 1331 160 781 160 
L 589 160 
L 589 0 
C 896 0 1216 0 1523 0 
C 1830 0 2150 0 2458 0 
L 2458 160 
L 2266 160 
C 1715 160 1702 230 1702 458 
L 1702 4058 
z
" transform="scale(0.015625)"/>
       </defs>
       <use xlink:href="#CMR17-31" transform="scale(0.996264)"/>
      </g>
     </g>
    </g>
    <g id="ytick_3">
     <g id="line2d_8">
      <path d="M 35.508189 104.70365 
L 200.874897 104.70365 
" clip-path="url(#p0a1496e0e5)" style="fill: none; stroke-dasharray: 3.7,1.6; stroke-dashoffset: 0; stroke: #b0b0b0; stroke-opacity: 0.5"/>
     </g>
     <g id="text_9">
      <!-- $\mathdefault{2}$ -->
      <g transform="translate(22.550591 107.747792) scale(0.088 -0.088)">
       <use xlink:href="#CMR17-32" transform="scale(0.996264)"/>
      </g>
     </g>
    </g>
    <g id="ytick_4">
     <g id="line2d_9">
      <path d="M 35.508189 84.929001 
L 200.874897 84.929001 
" clip-path="url(#p0a1496e0e5)" style="fill: none; stroke-dasharray: 3.7,1.6; stroke-dashoffset: 0; stroke: #b0b0b0; stroke-opacity: 0.5"/>
     </g>
     <g id="text_10">
      <!-- $\mathdefault{3}$ -->
      <g transform="translate(22.550591 87.973143) scale(0.088 -0.088)">
       <defs>
        <path id="CMR17-33" d="M 1414 2157 
C 1984 2157 2234 1662 2234 1090 
C 2234 320 1824 25 1453 25 
C 1114 25 563 194 390 693 
C 422 680 454 680 486 680 
C 640 680 755 782 755 948 
C 755 1133 614 1216 486 1216 
C 378 1216 211 1165 211 926 
C 211 335 787 -128 1466 -128 
C 2176 -128 2720 430 2720 1085 
C 2720 1707 2208 2157 1600 2227 
C 2086 2328 2554 2756 2554 3329 
C 2554 3820 2048 4179 1472 4179 
C 890 4179 378 3829 378 3329 
C 378 3110 544 3072 627 3072 
C 762 3072 877 3155 877 3321 
C 877 3486 762 3569 627 3569 
C 602 3569 570 3569 544 3557 
C 730 3959 1235 4032 1459 4032 
C 1683 4032 2106 3925 2106 3320 
C 2106 3143 2080 2828 1862 2550 
C 1670 2304 1453 2304 1242 2284 
C 1210 2284 1062 2269 1037 2269 
C 992 2263 966 2257 966 2208 
C 966 2163 973 2157 1101 2157 
L 1414 2157 
z
" transform="scale(0.015625)"/>
       </defs>
       <use xlink:href="#CMR17-33" transform="scale(0.996264)"/>
      </g>
     </g>
    </g>
    <g id="ytick_5">
     <g id="line2d_10">
      <path d="M 35.508189 65.154353 
L 200.874897 65.154353 
" clip-path="url(#p0a1496e0e5)" style="fill: none; stroke-dasharray: 3.7,1.6; stroke-dashoffset: 0; stroke: #b0b0b0; stroke-opacity: 0.5"/>
     </g>
     <g id="text_11">
      <!-- $\mathdefault{4}$ -->
      <g transform="translate(22.550591 68.198494) scale(0.088 -0.088)">
       <use xlink:href="#CMR17-34" transform="scale(0.996264)"/>
      </g>
     </g>
    </g>
    <g id="ytick_6">
     <g id="line2d_11">
      <path d="M 35.508189 45.379704 
L 200.874897 45.379704 
" clip-path="url(#p0a1496e0e5)" style="fill: none; stroke-dasharray: 3.7,1.6; stroke-dashoffset: 0; stroke: #b0b0b0; stroke-opacity: 0.5"/>
     </g>
     <g id="text_12">
      <!-- $\mathdefault{5}$ -->
      <g transform="translate(22.550591 48.423845) scale(0.088 -0.088)">
       <defs>
        <path id="CMR17-35" d="M 730 3692 
C 794 3666 1056 3584 1325 3584 
C 1920 3584 2246 3911 2432 4100 
C 2432 4157 2432 4192 2394 4192 
C 2387 4192 2374 4192 2323 4163 
C 2099 4058 1837 3973 1517 3973 
C 1325 3973 1037 3999 723 4139 
C 653 4171 640 4171 634 4171 
C 602 4171 595 4164 595 4037 
L 595 2203 
C 595 2089 595 2057 659 2057 
C 691 2057 704 2070 736 2114 
C 941 2401 1222 2522 1542 2522 
C 1766 2522 2246 2382 2246 1289 
C 2246 1085 2246 715 2054 421 
C 1894 159 1645 25 1370 25 
C 947 25 518 320 403 814 
C 429 807 480 795 506 795 
C 589 795 749 840 749 1038 
C 749 1210 627 1280 506 1280 
C 358 1280 262 1190 262 1011 
C 262 454 704 -128 1382 -128 
C 2042 -128 2669 440 2669 1264 
C 2669 2030 2170 2624 1549 2624 
C 1222 2624 947 2503 730 2274 
L 730 3692 
z
" transform="scale(0.015625)"/>
       </defs>
       <use xlink:href="#CMR17-35" transform="scale(0.996264)"/>
      </g>
     </g>
    </g>
    <g id="ytick_7">
     <g id="line2d_12">
      <path d="M 35.508189 25.605055 
L 200.874897 25.605055 
" clip-path="url(#p0a1496e0e5)" style="fill: none; stroke-dasharray: 3.7,1.6; stroke-dashoffset: 0; stroke: #b0b0b0; stroke-opacity: 0.5"/>
     </g>
     <g id="text_13">
      <!-- $\mathdefault{6}$ -->
      <g transform="translate(22.550591 28.649197) scale(0.088 -0.088)">
       <use xlink:href="#CMR17-36" transform="scale(0.996264)"/>
      </g>
     </g>
    </g>
    <g id="ytick_8">
     <g id="line2d_13">
      <path d="M 35.508189 5.830406 
L 200.874897 5.830406 
" clip-path="url(#p0a1496e0e5)" style="fill: none; stroke-dasharray: 3.7,1.6; stroke-dashoffset: 0; stroke: #b0b0b0; stroke-opacity: 0.5"/>
     </g>
     <g id="text_14">
      <!-- $\mathdefault{7}$ -->
      <g transform="translate(22.550591 8.874548) scale(0.088 -0.088)">
       <defs>
        <path id="CMR17-37" d="M 2886 3941 
L 2886 4081 
L 1382 4081 
C 634 4081 621 4165 595 4288 
L 480 4288 
L 294 3094 
L 410 3094 
C 429 3215 474 3540 550 3661 
C 589 3712 1062 3712 1171 3712 
L 2579 3712 
L 1869 2661 
C 1395 1954 1069 999 1069 165 
C 1069 89 1069 -128 1299 -128 
C 1530 -128 1530 89 1530 171 
L 1530 465 
C 1530 1508 1709 2196 2003 2636 
L 2886 3941 
z
" transform="scale(0.015625)"/>
       </defs>
       <use xlink:href="#CMR17-37" transform="scale(0.996264)"/>
      </g>
     </g>
    </g>
    <g id="text_15">
     <!-- Training Loss -->
     <g transform="translate(16.690896 107.280509) rotate(-90) scale(0.096 -0.096)">
      <defs>
       <path id="CMR17-54" d="M 3981 4326 
L 288 4326 
L 179 2918 
L 294 2918 
C 378 3976 467 4160 1453 4160 
C 1568 4160 1754 4160 1805 4154 
C 1926 4135 1926 4058 1926 3912 
L 1926 459 
C 1926 230 1907 160 1376 160 
L 1197 160 
L 1197 0 
C 1504 0 1824 0 2138 0 
C 2451 0 2771 0 3078 0 
L 3078 160 
L 2899 160 
C 2368 160 2349 230 2349 459 
L 2349 3912 
C 2349 4052 2349 4129 2464 4154 
C 2515 4160 2701 4160 2816 4160 
C 3795 4160 3891 3976 3974 2918 
L 4090 2918 
L 3981 4326 
z
" transform="scale(0.015625)"/>
       <path id="CMR17-72" d="M 960 1497 
C 960 2112 1222 2688 1702 2688 
C 1747 2688 1792 2682 1837 2662 
C 1837 2662 1696 2617 1696 2452 
C 1696 2298 1818 2234 1914 2234 
C 1990 2234 2131 2279 2131 2458 
C 2131 2663 1926 2790 1709 2790 
C 1222 2790 1011 2317 947 2093 
L 941 2093 
L 941 2790 
L 198 2720 
L 198 2554 
C 576 2554 634 2515 634 2208 
L 634 428 
C 634 184 608 153 198 153 
L 198 -13 
C 352 0 646 0 813 0 
C 998 0 1325 0 1498 -13 
L 1498 153 
C 1037 153 960 153 960 440 
L 960 1497 
z
" transform="scale(0.015625)"/>
       <path id="CMR17-61" d="M 2304 1653 
C 2304 2072 2304 2294 2035 2543 
C 1798 2752 1523 2816 1306 2816 
C 800 2816 435 2407 435 1971 
C 435 1728 627 1728 666 1728 
C 749 1728 896 1778 896 1954 
C 896 2112 774 2181 666 2181 
C 640 2181 608 2174 589 2168 
C 723 2592 1069 2714 1293 2714 
C 1613 2714 1965 2429 1965 1885 
L 1965 1600 
C 1587 1600 1133 1549 774 1357 
C 371 1133 256 813 256 570 
C 256 77 832 -64 1171 -64 
C 1523 -64 1850 139 1990 511 
C 2003 233 2182 -18 2464 -18 
C 2598 -18 2938 70 2938 567 
L 2938 920 
L 2822 920 
L 2822 562 
C 2822 178 2650 128 2566 128 
C 2304 128 2304 458 2304 738 
L 2304 1653 
z
M 1965 870 
C 1965 317 1568 38 1216 38 
C 896 38 646 275 646 570 
C 646 761 730 1100 1101 1305 
C 1408 1478 1760 1504 1965 1504 
L 1965 870 
z
" transform="scale(0.015625)"/>
       <path id="CMR17-69" d="M 992 3909 
C 992 4049 877 4170 730 4170 
C 589 4170 467 4056 467 3909 
C 467 3769 582 3648 730 3648 
C 870 3648 992 3763 992 3909 
z
M 243 2706 
L 243 2541 
C 602 2541 653 2502 653 2197 
L 653 427 
C 653 184 627 153 218 153 
L 218 -13 
C 371 0 646 0 806 0 
C 960 0 1222 0 1370 -13 
L 1370 153 
C 992 153 979 191 979 420 
L 979 2776 
L 243 2706 
z
" transform="scale(0.015625)"/>
       <path id="CMR17-6e" d="M 2656 1933 
C 2656 2259 2592 2790 1837 2790 
C 1331 2790 1069 2400 973 2144 
L 966 2144 
L 966 2790 
L 211 2720 
L 211 2554 
C 589 2554 646 2515 646 2208 
L 646 428 
C 646 184 621 153 211 153 
L 211 -13 
C 365 0 646 0 813 0 
C 979 0 1267 0 1421 -13 
L 1421 153 
C 1011 153 986 178 986 428 
L 986 1658 
C 986 2247 1344 2688 1792 2688 
C 2266 2688 2317 2266 2317 1958 
L 2317 428 
C 2317 184 2291 153 1882 153 
L 1882 -13 
C 2035 0 2317 0 2483 0 
C 2650 0 2938 0 3091 -13 
L 3091 153 
C 2682 153 2656 178 2656 428 
L 2656 1933 
z
" transform="scale(0.015625)"/>
       <path id="CMR17-67" d="M 710 1164 
C 832 1068 1043 960 1299 960 
C 1805 960 2240 1357 2240 1888 
C 2240 2054 2189 2310 1997 2509 
C 2176 2692 2438 2752 2586 2752 
C 2611 2752 2650 2752 2682 2734 
C 2656 2728 2598 2703 2598 2605 
C 2598 2527 2656 2471 2739 2471 
C 2835 2471 2886 2533 2886 2614 
C 2886 2731 2790 2854 2586 2854 
C 2330 2854 2106 2738 1926 2580 
C 1734 2753 1504 2816 1299 2816 
C 794 2816 358 2419 358 1888 
C 358 1522 570 1292 634 1228 
C 442 1004 442 743 442 711 
C 442 545 506 302 723 168 
C 390 85 128 -169 128 -486 
C 128 -943 736 -1280 1466 -1280 
C 2170 -1280 2803 -956 2803 -479 
C 2803 384 1856 384 1363 384 
C 1216 384 954 384 922 391 
C 723 423 589 602 589 826 
C 589 883 589 1024 710 1164 
z
M 1299 1068 
C 736 1068 736 1760 736 1889 
C 736 2016 736 2708 1299 2708 
C 1862 2708 1862 2016 1862 1889 
C 1862 1760 1862 1068 1299 1068 
z
M 1466 -1171 
C 826 -1171 384 -835 384 -486 
C 384 -289 493 -105 634 -4 
C 794 104 858 104 1293 104 
C 1818 104 2547 104 2547 -486 
C 2547 -835 2106 -1171 1466 -1171 
z
" transform="scale(0.015625)"/>
       <path id="CMR17-4c" d="M 3469 1615 
L 3354 1615 
C 3302 983 3219 166 2125 166 
L 1530 166 
C 1274 166 1261 197 1261 414 
L 1261 3898 
C 1261 4129 1274 4192 1760 4192 
L 1901 4192 
L 1901 4352 
C 1638 4352 1331 4352 1069 4352 
C 870 4352 512 4352 326 4352 
L 326 4192 
C 768 4192 838 4192 838 3905 
L 838 452 
C 838 166 768 166 326 166 
L 326 0 
L 3315 0 
L 3469 1615 
z
" transform="scale(0.015625)"/>
       <path id="CMR17-73" d="M 1978 2697 
C 1978 2813 1971 2819 1933 2819 
C 1907 2819 1901 2813 1824 2717 
C 1805 2691 1747 2626 1728 2601 
C 1523 2819 1235 2819 1126 2819 
C 416 2819 160 2447 160 2076 
C 160 1498 813 1365 998 1325 
C 1402 1243 1542 1217 1677 1101 
C 1760 1025 1901 884 1901 654 
C 1901 384 1747 38 1158 38 
C 602 38 403 460 288 1021 
C 269 1110 269 1117 218 1117 
C 166 1117 160 1110 160 983 
L 160 63 
C 160 -51 166 -58 205 -58 
C 237 -58 243 -51 275 0 
C 314 57 410 211 448 276 
C 576 103 800 -64 1158 -64 
C 1792 -64 2131 283 2131 784 
C 2131 1112 1958 1285 1875 1362 
C 1683 1561 1459 1606 1190 1657 
C 838 1735 390 1825 390 2217 
C 390 2383 480 2737 1126 2737 
C 1811 2737 1850 2094 1862 1888 
C 1869 1856 1901 1849 1920 1849 
C 1978 1849 1978 1869 1978 1978 
L 1978 2697 
z
" transform="scale(0.015625)"/>
      </defs>
      <use xlink:href="#CMR17-54" transform="scale(0.996264)"/>
      <use xlink:href="#CMR17-72" transform="translate(58.702625 0) scale(0.996264)"/>
      <use xlink:href="#CMR17-61" transform="translate(93.983393 0) scale(0.996264)"/>
      <use xlink:href="#CMR17-69" transform="translate(139.67387 0) scale(0.996264)"/>
      <use xlink:href="#CMR17-6e" transform="translate(164.544929 0) scale(0.996264)"/>
      <use xlink:href="#CMR17-69" transform="translate(215.440298 0) scale(0.996264)"/>
      <use xlink:href="#CMR17-6e" transform="translate(240.311357 0) scale(0.996264)"/>
      <use xlink:href="#CMR17-67" transform="translate(291.206727 0) scale(0.996264)"/>
      <use xlink:href="#CMR17-4c" transform="translate(366.97317 0) scale(0.996264)"/>
      <use xlink:href="#CMR17-6f" transform="translate(424.354578 0) scale(0.996264)"/>
      <use xlink:href="#CMR17-73" transform="translate(470.045055 0) scale(0.996264)"/>
      <use xlink:href="#CMR17-73" transform="translate(505.846393 0) scale(0.996264)"/>
     </g>
    </g>
   </g>
   <g id="PolyCollection_1">
    <defs>
     <path id="m5d9009a9d1" d="M 43.024858 -133.605708 
L 43.024858 -123.824431 
L 44.713997 -85.326002 
L 46.403136 -79.206251 
L 48.092275 -75.441119 
L 49.781414 -72.990029 
L 51.470553 -71.256205 
L 53.159692 -69.954518 
L 54.848831 -68.938727 
L 56.53797 -68.140677 
L 58.227109 -67.518639 
L 59.916248 -66.992275 
L 61.605387 -66.541277 
L 63.294526 -66.167679 
L 64.983665 -65.849546 
L 66.672804 -65.571623 
L 68.361943 -65.351077 
L 70.051082 -65.117476 
L 71.740221 -64.927053 
L 73.42936 -64.753579 
L 75.118499 -64.635519 
L 76.807638 -64.474474 
L 78.496777 -64.362129 
L 80.185916 -64.252863 
L 81.875055 -64.135994 
L 83.564194 -64.056742 
L 85.253333 -63.97379 
L 86.942472 -63.87182 
L 88.631611 -63.815135 
L 90.32075 -63.725747 
L 92.009889 -63.65786 
L 93.699028 -55.189221 
L 95.388167 -52.300332 
L 97.077306 -50.557498 
L 98.766445 -49.090914 
L 100.455584 -47.868133 
L 102.144723 -46.927327 
L 103.833862 -46.281827 
L 105.523001 -45.829704 
L 107.21214 -45.531419 
L 108.901279 -45.289586 
L 110.590418 -45.06586 
L 112.279557 -44.880397 
L 113.968696 -44.658368 
L 115.657835 -44.458269 
L 117.346974 -44.259353 
L 119.036113 -44.082063 
L 120.725252 -43.890818 
L 122.414391 -43.765888 
L 124.10353 -43.53657 
L 125.792669 -43.428673 
L 127.481808 -43.260325 
L 129.170947 -43.16758 
L 130.860086 -43.082444 
L 132.549225 -42.949991 
L 134.238364 -42.84481 
L 135.927503 -42.784059 
L 137.616642 -42.768058 
L 139.305781 -42.657542 
L 140.99492 -42.590816 
L 142.684059 -42.526322 
L 144.373198 -39.983861 
L 146.062337 -39.18349 
L 147.751476 -38.969143 
L 149.440615 -38.855702 
L 151.129754 -38.78698 
L 152.818893 -38.741099 
L 154.508032 -38.705989 
L 156.197171 -38.679978 
L 157.88631 -38.659403 
L 159.575449 -38.643743 
L 161.264588 -38.631507 
L 162.953727 -38.619711 
L 164.642866 -38.611433 
L 166.332005 -38.603669 
L 168.021144 -38.5978 
L 169.710283 -38.591089 
L 171.399422 -38.585743 
L 173.088561 -38.581362 
L 174.7777 -38.578303 
L 176.466839 -38.575698 
L 178.155978 -38.57229 
L 179.845117 -38.57025 
L 181.534256 -38.566739 
L 183.223395 -38.565422 
L 184.912534 -38.562975 
L 186.601673 -38.560568 
L 188.290812 -38.559593 
L 189.979951 -38.558606 
L 191.66909 -38.557015 
L 193.358229 -38.556359 
L 193.358229 -38.564555 
L 193.358229 -38.564555 
L 191.66909 -38.566105 
L 189.979951 -38.566878 
L 188.290812 -38.568673 
L 186.601673 -38.569824 
L 184.912534 -38.572825 
L 183.223395 -38.574376 
L 181.534256 -38.576615 
L 179.845117 -38.578807 
L 178.155978 -38.581992 
L 176.466839 -38.584858 
L 174.7777 -38.589358 
L 173.088561 -38.593253 
L 171.399422 -38.597373 
L 169.710283 -38.602741 
L 168.021144 -38.609255 
L 166.332005 -38.616798 
L 164.642866 -38.625223 
L 162.953727 -38.634601 
L 161.264588 -38.64683 
L 159.575449 -38.660757 
L 157.88631 -38.678199 
L 156.197171 -38.698624 
L 154.508032 -38.7268 
L 152.818893 -38.7628 
L 151.129754 -38.815372 
L 149.440615 -38.889563 
L 147.751476 -39.010109 
L 146.062337 -39.23633 
L 144.373198 -40.067481 
L 142.684059 -42.654591 
L 140.99492 -42.694526 
L 139.305781 -42.770475 
L 137.616642 -42.883012 
L 135.927503 -42.936769 
L 134.238364 -43.025102 
L 132.549225 -43.124618 
L 130.860086 -43.249074 
L 129.170947 -43.336137 
L 127.481808 -43.444521 
L 125.792669 -43.576071 
L 124.10353 -43.747554 
L 122.414391 -43.918163 
L 120.725252 -44.080093 
L 119.036113 -44.287493 
L 117.346974 -44.4919 
L 115.657835 -44.692787 
L 113.968696 -44.894144 
L 112.279557 -45.095028 
L 110.590418 -45.299101 
L 108.901279 -45.523544 
L 107.21214 -45.774179 
L 105.523001 -46.086609 
L 103.833862 -46.534524 
L 102.144723 -47.19571 
L 100.455584 -48.131534 
L 98.766445 -49.338321 
L 97.077306 -50.783672 
L 95.388167 -52.504899 
L 93.699028 -55.389563 
L 92.009889 -63.816129 
L 90.32075 -63.892356 
L 88.631611 -63.944916 
L 86.942472 -64.046738 
L 85.253333 -64.116324 
L 83.564194 -64.217537 
L 81.875055 -64.321879 
L 80.185916 -64.442502 
L 78.496777 -64.551022 
L 76.807638 -64.686734 
L 75.118499 -64.852996 
L 73.42936 -65.011038 
L 71.740221 -65.170247 
L 70.051082 -65.387276 
L 68.361943 -65.614729 
L 66.672804 -65.882509 
L 64.983665 -66.180688 
L 63.294526 -66.54128 
L 61.605387 -66.948931 
L 59.916248 -67.429774 
L 58.227109 -67.998786 
L 56.53797 -68.714809 
L 54.848831 -69.57559 
L 53.159692 -70.647639 
L 51.470553 -72.049237 
L 49.781414 -73.930996 
L 48.092275 -76.610004 
L 46.403136 -80.489544 
L 44.713997 -86.958566 
L 43.024858 -133.605708 
z
" style="stroke: #35b779; stroke-opacity: 0.2; stroke-width: 0.8"/>
    </defs>
    <g clip-path="url(#p0a1496e0e5)">
     <use xlink:href="#m5d9009a9d1" x="0" y="182.613543" style="fill: #35b779; fill-opacity: 0.2; stroke: #35b779; stroke-opacity: 0.2; stroke-width: 0.8"/>
    </g>
   </g>
   <g id="PolyCollection_2">
    <defs>
     <path id="m39ef3ba592" d="M 43.024858 -170.536147 
L 43.024858 -169.424261 
L 44.713997 -157.063901 
L 46.403136 -149.956751 
L 48.092275 -145.233996 
L 49.781414 -142.003646 
L 51.470553 -139.691706 
L 53.159692 -137.942829 
L 54.848831 -136.582886 
L 56.53797 -135.490717 
L 58.227109 -134.625257 
L 59.916248 -133.897104 
L 61.605387 -133.300658 
L 63.294526 -132.779928 
L 64.983665 -132.335101 
L 66.672804 -131.961706 
L 68.361943 -131.647867 
L 70.051082 -131.350222 
L 71.740221 -131.095928 
L 73.42936 -130.872089 
L 75.118499 -130.645042 
L 76.807638 -130.464893 
L 78.496777 -130.299305 
L 80.185916 -130.16542 
L 81.875055 -130.006151 
L 83.564194 -129.874716 
L 85.253333 -129.746697 
L 86.942472 -129.632277 
L 88.631611 -129.544789 
L 90.32075 -129.43303 
L 92.009889 -129.349007 
L 93.699028 -117.824918 
L 95.388167 -113.561516 
L 97.077306 -110.847775 
L 98.766445 -108.509265 
L 100.455584 -106.539111 
L 102.144723 -104.937301 
L 103.833862 -103.611849 
L 105.523001 -102.505917 
L 107.21214 -101.464417 
L 108.901279 -100.445832 
L 110.590418 -99.425121 
L 112.279557 -98.380646 
L 113.968696 -97.339316 
L 115.657835 -96.283885 
L 117.346974 -95.206718 
L 119.036113 -94.144083 
L 120.725252 -93.089255 
L 122.414391 -92.030542 
L 124.10353 -90.968546 
L 125.792669 -89.926885 
L 127.481808 -88.922052 
L 129.170947 -87.892209 
L 130.860086 -86.882707 
L 132.549225 -85.878893 
L 134.238364 -84.966338 
L 135.927503 -83.952321 
L 137.616642 -83.036837 
L 139.305781 -82.092683 
L 140.99492 -81.197756 
L 142.684059 -80.366677 
L 144.373198 -65.040403 
L 146.062337 -59.177985 
L 147.751476 -56.213584 
L 149.440615 -54.025841 
L 151.129754 -52.236991 
L 152.818893 -50.711272 
L 154.508032 -49.388876 
L 156.197171 -48.204651 
L 157.88631 -47.15144 
L 159.575449 -46.209441 
L 161.264588 -45.376239 
L 162.953727 -44.613332 
L 164.642866 -43.951862 
L 166.332005 -43.359622 
L 168.021144 -42.841718 
L 169.710283 -42.387189 
L 171.399422 -41.989322 
L 173.088561 -41.655323 
L 174.7777 -41.356825 
L 176.466839 -41.103155 
L 178.155978 -40.88957 
L 179.845117 -40.699021 
L 181.534256 -40.536844 
L 183.223395 -40.391433 
L 184.912534 -40.28239 
L 186.601673 -40.176969 
L 188.290812 -40.082531 
L 189.979951 -40.008451 
L 191.66909 -39.935542 
L 193.358229 -39.872374 
L 193.358229 -40.004678 
L 193.358229 -40.004678 
L 191.66909 -40.071421 
L 189.979951 -40.147289 
L 188.290812 -40.24379 
L 186.601673 -40.35335 
L 184.912534 -40.466672 
L 183.223395 -40.614892 
L 181.534256 -40.765637 
L 179.845117 -40.946839 
L 178.155978 -41.167127 
L 176.466839 -41.412446 
L 174.7777 -41.697514 
L 173.088561 -42.030731 
L 171.399422 -42.41496 
L 169.710283 -42.836841 
L 168.021144 -43.331764 
L 166.332005 -43.894855 
L 164.642866 -44.529231 
L 162.953727 -45.239317 
L 161.264588 -46.021141 
L 159.575449 -46.902176 
L 157.88631 -47.874777 
L 156.197171 -48.957388 
L 154.508032 -50.167552 
L 152.818893 -51.513035 
L 151.129754 -53.044786 
L 149.440615 -54.840338 
L 147.751476 -57.039764 
L 146.062337 -60.025986 
L 144.373198 -65.834362 
L 142.684059 -81.127231 
L 140.99492 -81.992572 
L 139.305781 -82.904784 
L 137.616642 -83.829159 
L 135.927503 -84.75132 
L 134.238364 -85.708542 
L 132.549225 -86.685905 
L 130.860086 -87.678091 
L 129.170947 -88.702048 
L 127.481808 -89.687489 
L 125.792669 -90.708066 
L 124.10353 -91.772635 
L 122.414391 -92.786493 
L 120.725252 -93.859161 
L 119.036113 -94.936433 
L 117.346974 -95.984655 
L 115.657835 -97.01836 
L 113.968696 -98.085302 
L 112.279557 -99.139059 
L 110.590418 -100.192554 
L 108.901279 -101.180539 
L 107.21214 -102.1954 
L 105.523001 -103.257959 
L 103.833862 -104.362503 
L 102.144723 -105.662935 
L 100.455584 -107.24935 
L 98.766445 -109.204586 
L 97.077306 -111.508954 
L 95.388167 -114.198679 
L 93.699028 -118.415189 
L 92.009889 -129.875853 
L 90.32075 -129.966882 
L 88.631611 -130.064547 
L 86.942472 -130.198178 
L 85.253333 -130.294778 
L 83.564194 -130.429709 
L 81.875055 -130.564576 
L 80.185916 -130.720661 
L 78.496777 -130.880522 
L 76.807638 -131.066935 
L 75.118499 -131.272376 
L 73.42936 -131.492997 
L 71.740221 -131.764058 
L 70.051082 -132.026164 
L 68.361943 -132.341914 
L 66.672804 -132.691392 
L 64.983665 -133.100734 
L 63.294526 -133.568836 
L 61.605387 -134.134324 
L 59.916248 -134.78629 
L 58.227109 -135.568755 
L 56.53797 -136.508146 
L 54.848831 -137.66705 
L 53.159692 -139.107509 
L 51.470553 -140.959608 
L 49.781414 -143.428794 
L 48.092275 -147.048555 
L 46.403136 -151.300706 
L 44.713997 -158.527151 
L 43.024858 -170.536147 
z
" style="stroke: #31688e; stroke-opacity: 0.2; stroke-width: 0.8"/>
    </defs>
    <g clip-path="url(#p0a1496e0e5)">
     <use xlink:href="#m39ef3ba592" x="0" y="182.613543" style="fill: #31688e; fill-opacity: 0.2; stroke: #31688e; stroke-opacity: 0.2; stroke-width: 0.8"/>
    </g>
   </g>
   <g id="line2d_14">
    <path d="M 43.024858 53.898474 
L 44.713997 96.471259 
L 46.403136 102.765646 
L 48.092275 106.587982 
L 49.781414 109.153031 
L 51.470553 110.960822 
L 53.159692 112.312465 
L 54.848831 113.356385 
L 56.53797 114.1858 
L 58.227109 114.85483 
L 59.916248 115.402519 
L 61.605387 115.868439 
L 63.294526 116.259063 
L 64.983665 116.598426 
L 66.672804 116.886477 
L 68.361943 117.13064 
L 70.051082 117.361168 
L 71.740221 117.564893 
L 73.42936 117.731234 
L 75.118499 117.869286 
L 76.807638 118.032939 
L 78.496777 118.156968 
L 80.185916 118.265861 
L 81.875055 118.384607 
L 83.564194 118.476404 
L 85.253333 118.568486 
L 86.942472 118.654265 
L 88.631611 118.733517 
L 90.32075 118.804492 
L 92.009889 118.876549 
L 93.699028 127.324151 
L 95.388167 130.210928 
L 97.077306 131.942958 
L 98.766445 133.398926 
L 100.455584 134.61371 
L 102.144723 135.552024 
L 103.833862 136.205367 
L 105.523001 136.655387 
L 107.21214 136.960744 
L 108.901279 137.206978 
L 110.590418 137.431063 
L 112.279557 137.625831 
L 113.968696 137.837287 
L 115.657835 138.038015 
L 117.346974 138.237917 
L 119.036113 138.428765 
L 120.725252 138.628087 
L 122.414391 138.771518 
L 124.10353 138.971481 
L 125.792669 139.111171 
L 127.481808 139.26112 
L 129.170947 139.361685 
L 130.860086 139.447784 
L 132.549225 139.576239 
L 134.238364 139.678587 
L 135.927503 139.753129 
L 137.616642 139.788008 
L 139.305781 139.899534 
L 140.99492 139.970872 
L 142.684059 140.023086 
L 144.373198 142.587872 
L 146.062337 143.403633 
L 147.751476 143.623917 
L 149.440615 143.740911 
L 151.129754 143.812367 
L 152.818893 143.861593 
L 154.508032 143.897148 
L 156.197171 143.924242 
L 157.88631 143.944742 
L 159.575449 143.961293 
L 161.264588 143.974374 
L 162.953727 143.986387 
L 164.642866 143.995215 
L 166.332005 144.003309 
L 168.021144 144.010016 
L 169.710283 144.016628 
L 171.399422 144.021985 
L 173.088561 144.026236 
L 174.7777 144.029713 
L 176.466839 144.033265 
L 178.155978 144.036402 
L 179.845117 144.039014 
L 181.534256 144.041866 
L 183.223395 144.043645 
L 184.912534 144.045643 
L 186.601673 144.048347 
L 188.290812 144.04941 
L 189.979951 144.050801 
L 191.66909 144.051983 
L 193.358229 144.053086 
" clip-path="url(#p0a1496e0e5)" style="fill: none; stroke: #35b779; stroke-width: 1.2; stroke-linecap: round"/>
    <defs>
     <path id="m6a805dac97" d="M 0 2.5 
C 0.663008 2.5 1.29895 2.236584 1.767767 1.767767 
C 2.236584 1.29895 2.5 0.663008 2.5 0 
C 2.5 -0.663008 2.236584 -1.29895 1.767767 -1.767767 
C 1.29895 -2.236584 0.663008 -2.5 0 -2.5 
C -0.663008 -2.5 -1.29895 -2.236584 -1.767767 -1.767767 
C -2.236584 -1.29895 -2.5 -0.663008 -2.5 0 
C -2.5 0.663008 -2.236584 1.29895 -1.767767 1.767767 
C -1.29895 2.236584 -0.663008 2.5 0 2.5 
z
" style="stroke: #ffffff; stroke-width: 0.5"/>
    </defs>
    <g clip-path="url(#p0a1496e0e5)">
     <use xlink:href="#m6a805dac97" x="43.024858" y="53.898474" style="fill: #35b779; stroke: #ffffff; stroke-width: 0.5"/>
     <use xlink:href="#m6a805dac97" x="59.916248" y="115.402519" style="fill: #35b779; stroke: #ffffff; stroke-width: 0.5"/>
     <use xlink:href="#m6a805dac97" x="76.807638" y="118.032939" style="fill: #35b779; stroke: #ffffff; stroke-width: 0.5"/>
     <use xlink:href="#m6a805dac97" x="93.699028" y="127.324151" style="fill: #35b779; stroke: #ffffff; stroke-width: 0.5"/>
     <use xlink:href="#m6a805dac97" x="110.590418" y="137.431063" style="fill: #35b779; stroke: #ffffff; stroke-width: 0.5"/>
     <use xlink:href="#m6a805dac97" x="127.481808" y="139.26112" style="fill: #35b779; stroke: #ffffff; stroke-width: 0.5"/>
     <use xlink:href="#m6a805dac97" x="144.373198" y="142.587872" style="fill: #35b779; stroke: #ffffff; stroke-width: 0.5"/>
     <use xlink:href="#m6a805dac97" x="161.264588" y="143.974374" style="fill: #35b779; stroke: #ffffff; stroke-width: 0.5"/>
     <use xlink:href="#m6a805dac97" x="178.155978" y="144.036402" style="fill: #35b779; stroke: #ffffff; stroke-width: 0.5"/>
    </g>
   </g>
   <g id="line2d_15">
    <path d="M 43.024858 12.633339 
L 44.713997 24.818017 
L 46.403136 31.984815 
L 48.092275 36.472268 
L 49.781414 39.897323 
L 51.470553 42.287886 
L 53.159692 44.088374 
L 54.848831 45.488575 
L 56.53797 46.614112 
L 58.227109 47.516537 
L 59.916248 48.271846 
L 61.605387 48.896052 
L 63.294526 49.439161 
L 64.983665 49.895626 
L 66.672804 50.286994 
L 68.361943 50.618652 
L 70.051082 50.92535 
L 71.740221 51.18355 
L 73.42936 51.431 
L 75.118499 51.654834 
L 76.807638 51.847629 
L 78.496777 52.023629 
L 80.185916 52.170502 
L 81.875055 52.32818 
L 83.564194 52.461331 
L 85.253333 52.592806 
L 86.942472 52.698316 
L 88.631611 52.808875 
L 90.32075 52.913587 
L 92.009889 53.001113 
L 93.699028 64.49349 
L 95.388167 68.733446 
L 97.077306 71.435179 
L 98.766445 73.756617 
L 100.455584 75.719313 
L 102.144723 77.313425 
L 103.833862 78.626367 
L 105.523001 79.731605 
L 107.21214 80.783634 
L 108.901279 81.800358 
L 110.590418 82.804706 
L 112.279557 83.853691 
L 113.968696 84.901234 
L 115.657835 85.962421 
L 117.346974 87.017856 
L 119.036113 88.073285 
L 120.725252 89.139336 
L 122.414391 90.205025 
L 124.10353 91.242953 
L 125.792669 92.296068 
L 127.481808 93.308773 
L 129.170947 94.316415 
L 130.860086 95.333144 
L 132.549225 96.331144 
L 134.238364 97.276103 
L 135.927503 98.261723 
L 137.616642 99.180545 
L 139.305781 100.11481 
L 140.99492 101.018379 
L 142.684059 101.866589 
L 144.373198 117.17616 
L 146.062337 123.011557 
L 147.751476 125.986869 
L 149.440615 128.180454 
L 151.129754 129.972654 
L 152.818893 131.50139 
L 154.508032 132.835329 
L 156.197171 134.032524 
L 157.88631 135.100435 
L 159.575449 136.057735 
L 161.264588 136.914853 
L 162.953727 137.687219 
L 164.642866 138.372996 
L 166.332005 138.986304 
L 168.021144 139.526802 
L 169.710283 140.001528 
L 171.399422 140.411402 
L 173.088561 140.770516 
L 174.7777 141.086374 
L 176.466839 141.355743 
L 178.155978 141.585195 
L 179.845117 141.790613 
L 181.534256 141.962303 
L 183.223395 142.110381 
L 184.912534 142.239012 
L 186.601673 142.348384 
L 188.290812 142.450383 
L 189.979951 142.535673 
L 191.66909 142.610061 
L 193.358229 142.675017 
" clip-path="url(#p0a1496e0e5)" style="fill: none; stroke-dasharray: 4.8,1.8; stroke-dashoffset: 0; stroke: #31688e; stroke-width: 1.2"/>
    <defs>
     <path id="me3452c6a94" d="M -1.25 2.5 
L 0 1.25 
L 1.25 2.5 
L 2.5 1.25 
L 1.25 0 
L 2.5 -1.25 
L 1.25 -2.5 
L 0 -1.25 
L -1.25 -2.5 
L -2.5 -1.25 
L -1.25 0 
L -2.5 1.25 
z
" style="stroke: #ffffff; stroke-width: 0.5; stroke-linejoin: miter"/>
    </defs>
    <g clip-path="url(#p0a1496e0e5)">
     <use xlink:href="#me3452c6a94" x="43.024858" y="12.633339" style="fill: #31688e; stroke: #ffffff; stroke-width: 0.5; stroke-linejoin: miter"/>
     <use xlink:href="#me3452c6a94" x="59.916248" y="48.271846" style="fill: #31688e; stroke: #ffffff; stroke-width: 0.5; stroke-linejoin: miter"/>
     <use xlink:href="#me3452c6a94" x="76.807638" y="51.847629" style="fill: #31688e; stroke: #ffffff; stroke-width: 0.5; stroke-linejoin: miter"/>
     <use xlink:href="#me3452c6a94" x="93.699028" y="64.49349" style="fill: #31688e; stroke: #ffffff; stroke-width: 0.5; stroke-linejoin: miter"/>
     <use xlink:href="#me3452c6a94" x="110.590418" y="82.804706" style="fill: #31688e; stroke: #ffffff; stroke-width: 0.5; stroke-linejoin: miter"/>
     <use xlink:href="#me3452c6a94" x="127.481808" y="93.308773" style="fill: #31688e; stroke: #ffffff; stroke-width: 0.5; stroke-linejoin: miter"/>
     <use xlink:href="#me3452c6a94" x="144.373198" y="117.17616" style="fill: #31688e; stroke: #ffffff; stroke-width: 0.5; stroke-linejoin: miter"/>
     <use xlink:href="#me3452c6a94" x="161.264588" y="136.914853" style="fill: #31688e; stroke: #ffffff; stroke-width: 0.5; stroke-linejoin: miter"/>
     <use xlink:href="#me3452c6a94" x="178.155978" y="141.585195" style="fill: #31688e; stroke: #ffffff; stroke-width: 0.5; stroke-linejoin: miter"/>
    </g>
   </g>
   <g id="line2d_16"/>
   <g id="line2d_17"/>
   <g id="line2d_18">
    <path d="M 95.388167 150.656173 
L 95.388167 5.478406 
" clip-path="url(#p0a1496e0e5)" style="fill: none; stroke-dasharray: 1.85,0.8; stroke-dashoffset: 0; stroke: #000000; stroke-width: 0.5"/>
   </g>
   <g id="patch_3">
    <path d="M 35.508189 150.656173 
L 35.508189 5.478406 
" style="fill: none; stroke: #000000; stroke-linejoin: miter; stroke-linecap: square"/>
   </g>
   <g id="patch_4">
    <path d="M 35.508189 150.656173 
L 200.874897 150.656173 
" style="fill: none; stroke: #000000; stroke-linejoin: miter; stroke-linecap: square"/>
   </g>
   <g id="legend_1">
    <g id="patch_5">
     <path d="M 117.35027 37.95023 
L 194.714897 37.95023 
Q 196.474897 37.95023 196.474897 36.19023 
L 196.474897 11.638406 
Q 196.474897 9.878406 194.714897 9.878406 
L 117.35027 9.878406 
Q 115.59027 9.878406 115.59027 11.638406 
L 115.59027 36.19023 
Q 115.59027 37.95023 117.35027 37.95023 
z
" style="fill: #ffffff; opacity: 0.8; stroke: #cccccc; stroke-width: 0.8; stroke-linejoin: miter"/>
    </g>
    <g id="line2d_19">
     <path d="M 119.11027 16.89374 
L 127.91027 16.89374 
L 136.71027 16.89374 
" style="fill: none; stroke: #35b779; stroke-width: 1.2; stroke-linecap: round"/>
     <g>
      <use xlink:href="#m6a805dac97" x="127.91027" y="16.89374" style="fill: #35b779; stroke: #ffffff; stroke-width: 0.5"/>
     </g>
    </g>
    <g id="text_16">
     <!-- LAP (Ours) -->
     <g transform="translate(143.75027 19.97374) scale(0.088 -0.088)">
      <defs>
       <path id="CMR17-41" d="M 2323 4378 
C 2291 4461 2278 4480 2214 4480 
C 2150 4480 2138 4461 2106 4378 
L 749 566 
C 627 223 371 153 147 153 
L 147 -13 
C 262 0 518 0 640 0 
C 800 0 1056 0 1210 -13 
L 1210 153 
C 909 153 864 361 864 439 
C 864 497 877 530 890 569 
L 1229 1536 
L 2906 1536 
L 3290 442 
C 3322 365 3322 352 3322 327 
C 3322 153 3046 153 2925 153 
L 2925 0 
C 3110 0 3443 0 3642 0 
C 3808 0 4128 0 4282 -13 
L 4282 153 
C 3942 153 3827 153 3744 387 
L 2323 4378 
z
M 2067 3893 
L 2848 1702 
L 1286 1702 
L 2067 3893 
z
" transform="scale(0.015625)"/>
       <path id="CMR17-50" d="M 1267 2042 
L 2291 2042 
C 3117 2042 3718 2578 3718 3184 
C 3718 3791 3130 4352 2291 4352 
L 333 4352 
L 333 4186 
C 774 4186 845 4186 845 3899 
L 845 446 
C 845 160 774 160 333 160 
L 333 0 
C 518 0 858 0 1056 0 
C 1254 0 1594 0 1779 0 
L 1779 160 
C 1338 160 1267 160 1267 446 
L 1267 2042 
z
M 1254 2176 
L 1254 3938 
C 1254 4155 1267 4186 1523 4186 
L 2170 4186 
C 2995 4186 3232 3714 3232 3184 
C 3232 2604 2950 2176 2170 2176 
L 1254 2176 
z
" transform="scale(0.015625)"/>
       <path id="CMR17-28" d="M 1958 -1561 
C 1958 -1555 1958 -1542 1939 -1523 
C 1645 -1224 858 -407 858 1581 
C 858 3569 1632 4379 1946 4697 
C 1946 4704 1958 4717 1958 4736 
C 1958 4755 1939 4768 1914 4768 
C 1843 4768 1299 4296 986 3594 
C 666 2887 576 2199 576 1588 
C 576 1128 621 351 1005 -471 
C 1312 -1135 1837 -1600 1914 -1600 
C 1946 -1600 1958 -1587 1958 -1561 
z
" transform="scale(0.015625)"/>
       <path id="CMR17-4f" d="M 4307 2135 
C 4307 3437 3366 4416 2304 4416 
C 1216 4416 294 3424 294 2135 
C 294 845 1229 -128 2298 -128 
C 3392 -128 4307 864 4307 2135 
z
M 2304 -13 
C 1574 -13 781 711 781 2217 
C 781 3716 1651 4301 2298 4301 
C 2976 4301 3821 3698 3821 2217 
C 3821 686 3008 -13 2304 -13 
z
" transform="scale(0.015625)"/>
       <path id="CMR17-75" d="M 1882 2693 
L 1882 2528 
C 2259 2528 2317 2489 2317 2186 
L 2317 1032 
C 2317 500 2029 38 1555 38 
C 1030 38 986 348 986 678 
L 986 2763 
L 211 2693 
L 211 2528 
C 467 2528 640 2528 646 2274 
L 646 1058 
C 646 633 646 361 813 183 
C 896 101 1056 -64 1517 -64 
C 2061 -64 2272 377 2323 506 
L 2330 506 
L 2330 -63 
L 3091 -63 
L 3091 128 
C 2714 128 2656 166 2656 473 
L 2656 2763 
L 1882 2693 
z
" transform="scale(0.015625)"/>
       <path id="CMR17-29" d="M 1683 1581 
C 1683 2040 1638 2817 1254 3639 
C 947 4303 422 4768 346 4768 
C 326 4768 301 4761 301 4729 
C 301 4717 307 4710 314 4697 
C 621 4378 1402 3568 1402 1584 
C 1402 -407 627 -1217 314 -1537 
C 307 -1549 301 -1556 301 -1568 
C 301 -1600 326 -1600 346 -1600 
C 416 -1600 960 -1128 1274 -426 
C 1594 281 1683 969 1683 1581 
z
" transform="scale(0.015625)"/>
      </defs>
      <use xlink:href="#CMR17-4c" transform="scale(0.996264)"/>
      <use xlink:href="#CMR17-41" transform="translate(57.381408 0) scale(0.996264)"/>
      <use xlink:href="#CMR17-50" transform="translate(126.453838 0) scale(0.996264)"/>
      <use xlink:href="#CMR17-28" transform="translate(219.116105 0) scale(0.996264)"/>
      <use xlink:href="#CMR17-4f" transform="translate(254.396872 0) scale(0.996264)"/>
      <use xlink:href="#CMR17-75" transform="translate(326.111661 0) scale(0.996264)"/>
      <use xlink:href="#CMR17-72" transform="translate(377.007031 0) scale(0.996264)"/>
      <use xlink:href="#CMR17-73" transform="translate(412.287798 0) scale(0.996264)"/>
      <use xlink:href="#CMR17-29" transform="translate(448.089136 0) scale(0.996264)"/>
     </g>
    </g>
    <g id="line2d_20">
     <path d="M 119.11027 29.645517 
L 127.91027 29.645517 
L 136.71027 29.645517 
" style="fill: none; stroke-dasharray: 4.8,1.8; stroke-dashoffset: 0; stroke: #31688e; stroke-width: 1.2"/>
     <g>
      <use xlink:href="#me3452c6a94" x="127.91027" y="29.645517" style="fill: #31688e; stroke: #ffffff; stroke-width: 0.5; stroke-linejoin: miter"/>
     </g>
    </g>
    <g id="text_17">
     <!-- Standard -->
     <g transform="translate(143.75027 32.725517) scale(0.088 -0.088)">
      <defs>
       <path id="CMR17-53" d="M 2803 4290 
C 2803 4404 2797 4411 2758 4411 
C 2720 4411 2707 4385 2682 4328 
L 2490 3907 
C 2246 4257 1875 4416 1472 4416 
C 819 4416 294 3901 294 3253 
C 294 3056 339 2776 557 2510 
C 794 2218 1018 2167 1530 2033 
C 1722 1982 2042 1899 2106 1874 
C 2470 1722 2662 1341 2662 985 
C 2662 527 2336 38 1779 38 
C 1094 38 454 419 410 1311 
C 403 1413 397 1419 352 1419 
C 301 1419 294 1413 294 1285 
L 294 -1 
C 294 -115 301 -122 339 -122 
C 384 -122 397 -90 486 108 
C 493 127 493 140 614 381 
C 934 -39 1472 -128 1779 -128 
C 2477 -128 2970 451 2970 1124 
C 2970 1454 2848 1708 2778 1823 
C 2509 2230 2221 2306 1914 2382 
C 1869 2402 1856 2402 1498 2490 
C 1152 2579 1005 2624 845 2796 
C 666 2992 602 3196 602 3399 
C 602 3812 934 4263 1478 4263 
C 2157 4263 2579 3786 2675 2993 
C 2694 2878 2701 2872 2746 2872 
C 2803 2872 2803 2891 2803 2999 
L 2803 4290 
z
" transform="scale(0.015625)"/>
       <path id="CMR17-74" d="M 966 2560 
L 1862 2560 
L 1862 2725 
L 966 2725 
L 966 3904 
L 851 3904 
C 838 3245 614 2668 70 2668 
L 70 2560 
L 627 2560 
L 627 771 
C 627 650 627 -64 1370 -64 
C 1747 -64 1965 306 1965 777 
L 1965 1140 
L 1850 1140 
L 1850 783 
C 1850 344 1677 51 1408 51 
C 1222 51 966 178 966 758 
L 966 2560 
z
" transform="scale(0.015625)"/>
       <path id="CMR17-64" d="M 1869 4326 
L 1869 4160 
C 2246 4160 2304 4122 2304 3820 
L 2304 2345 
C 2278 2377 2016 2790 1498 2790 
C 845 2790 211 2208 211 1364 
C 211 525 806 -64 1434 -64 
C 1978 -64 2259 337 2291 380 
L 2291 -63 
L 3066 -63 
L 3066 128 
C 2688 128 2630 166 2630 473 
L 2630 4396 
L 1869 4326 
z
M 2291 755 
C 2291 563 2176 390 2029 262 
C 1811 70 1594 38 1472 38 
C 1286 38 621 134 621 1356 
C 621 2612 1363 2688 1530 2688 
C 1824 2688 2061 2522 2208 2291 
C 2291 2157 2291 2138 2291 2023 
L 2291 755 
z
" transform="scale(0.015625)"/>
      </defs>
      <use xlink:href="#CMR17-53" transform="scale(0.996264)"/>
      <use xlink:href="#CMR17-74" transform="translate(50.89537 0) scale(0.996264)"/>
      <use xlink:href="#CMR17-61" transform="translate(86.176138 0) scale(0.996264)"/>
      <use xlink:href="#CMR17-6e" transform="translate(131.866615 0) scale(0.996264)"/>
      <use xlink:href="#CMR17-64" transform="translate(182.761984 0) scale(0.996264)"/>
      <use xlink:href="#CMR17-61" transform="translate(233.657354 0) scale(0.996264)"/>
      <use xlink:href="#CMR17-72" transform="translate(279.347831 0) scale(0.996264)"/>
      <use xlink:href="#CMR17-64" transform="translate(314.628599 0) scale(0.996264)"/>
     </g>
    </g>
   </g>
  </g>
 </g>
 <defs>
  <clipPath id="p0a1496e0e5">
   <rect x="35.508189" y="5.478406" width="165.366708" height="145.177767"/>
  </clipPath>
 </defs>
</svg>
